<svg width="90" height="199" viewBox="0 0 90 199" fill="none" xmlns="http://www.w3.org/2000/svg">
<path d="M16.928 0.783998C17.056 0.975996 17.248 1.07199 17.504 1.07199C17.888 1.136 18.08 1.392 18.08 1.84C18.08 2.032 17.952 2.128 17.696 2.128C17.568 2.128 17.504 2.224 17.504 2.41599C17.504 2.608 17.824 2.864 18.464 3.184C18.848 3.376 19.2 3.632 19.52 3.952C19.84 4.272 20.224 4.752 20.672 5.392C21.056 5.968 21.408 6.416 21.728 6.736C22.24 7.312 22.624 7.952 22.88 8.65599C23.2 9.36 23.584 10.384 24.032 11.728L24.32 12.496L23.552 12.976L19.424 16.048C18.72 16.368 18.112 16.848 17.6 17.488C16 18.704 15.168 19.28 15.104 19.216L14.912 18.16C14.656 16.688 14.304 15.6 13.856 14.896C13.728 14.64 13.504 14.416 13.184 14.224C12.864 13.968 12.608 13.84 12.416 13.84C12.096 13.84 11.968 13.904 12.032 14.032C12.16 14.096 12.352 14.192 12.608 14.32C12.736 14.384 12.864 14.48 12.992 14.608C13.12 14.736 13.184 14.864 13.184 14.992C13.184 15.184 13.12 15.28 12.992 15.28L13.088 15.568C13.28 15.632 13.376 15.888 13.376 16.336C13.376 16.592 13.312 16.72 13.184 16.72C13.12 16.656 13.056 16.72 12.992 16.912C12.992 17.104 12.992 17.328 12.992 17.584L13.088 18.352L12.704 18.448C12.256 18.512 11.936 18.832 11.744 19.408C11.68 19.536 11.584 19.696 11.456 19.888C11.392 20.08 11.296 20.24 11.168 20.368C11.04 20.496 10.976 20.784 10.976 21.232C10.976 21.616 11.008 21.84 11.072 21.904C11.136 22.16 11.072 22.384 10.88 22.576C10.752 22.704 10.72 22.832 10.784 22.96C10.848 22.96 10.88 23.152 10.88 23.536C10.752 23.792 10.752 23.92 10.88 23.92C11.008 23.92 11.072 23.984 11.072 24.112C11.072 24.24 11.008 24.368 10.88 24.496C10.752 24.496 10.688 24.688 10.688 25.072C10.624 25.328 10.624 25.52 10.688 25.648C10.752 25.712 10.88 25.776 11.072 25.84C11.84 26.288 12.384 26.928 12.704 27.76C12.704 27.952 12.864 28.24 13.184 28.624C13.504 28.944 13.728 29.104 13.856 29.104C14.304 29.104 14.656 28.912 14.912 28.528C15.232 28.08 15.392 27.568 15.392 26.992L15.296 26.416L18.272 23.632C20.192 21.52 21.152 20.464 21.152 20.464C21.152 20.336 21.28 20.144 21.536 19.888L22.112 19.216C22.304 18.832 22.848 18.096 23.744 17.008L24.32 16.432C24.512 16.048 24.64 15.952 24.704 16.144C24.832 16.336 24.96 16.944 25.088 17.968L25.28 19.792L24.032 20.944C23.392 21.648 23.072 22.064 23.072 22.192L23.168 22.384C23.424 22.448 23.616 22.416 23.744 22.288C23.872 22.16 24.128 22.096 24.512 22.096C24.768 22.096 24.928 22 24.992 21.808C25.312 21.616 25.472 21.872 25.472 22.576C25.472 23.088 25.312 23.44 24.992 23.632C24.864 23.824 24.704 23.952 24.512 24.016C24.448 24.016 24.32 24.08 24.128 24.208C24 24.272 23.872 24.368 23.744 24.496C23.616 24.56 23.264 24.784 22.688 25.168C22.176 25.488 21.728 25.776 21.344 26.032C19.296 27.44 18.144 28.208 17.888 28.336C14.176 30.832 11.552 32.304 10.016 32.752C8.672 33.392 7.424 33.744 6.272 33.808L5.408 33.904C5.408 33.904 5.472 33.968 5.6 34.096C5.792 34.288 6.144 34.384 6.656 34.384C6.848 34.448 6.976 34.512 7.04 34.576C7.168 34.576 7.168 34.576 7.04 34.576C6.912 34.64 6.656 34.672 6.272 34.672C5.952 34.672 5.792 34.736 5.792 34.864C5.792 34.992 5.952 35.088 6.272 35.152L6.656 35.44L5.792 35.632L6.272 35.728C6.528 35.92 7.2 36.016 8.288 36.016C9.568 36.016 10.624 35.92 11.456 35.728L14.624 34.672C15.072 34.416 15.424 34.288 15.68 34.288L16.064 34.384C16.384 34.448 16.512 34.576 16.448 34.768C16.384 35.024 16.448 35.28 16.64 35.536L16.928 35.728L16.544 36.208C16.48 36.336 16.288 36.528 15.968 36.784C15.712 37.04 15.552 37.328 15.488 37.648L13.856 39.568C13.664 39.76 13.344 40.144 12.896 40.72C12.448 41.232 11.872 41.904 11.168 42.736L8.768 45.616C8.64 45.744 8.384 46 8 46.384C7.68 46.768 7.456 47.12 7.328 47.44C7.072 47.696 6.816 47.984 6.56 48.304C6.368 48.56 6.144 48.784 5.888 48.976L5.408 49.84C5.408 49.84 5.152 50.16 4.64 50.8C4 51.312 3.616 51.76 3.488 52.144C3.296 52.528 2.624 53.168 1.472 54.064L0.992 54.352H1.568C1.824 54.352 2.368 54.16 3.2 53.776C3.456 53.584 3.712 53.424 3.968 53.296C4.224 53.104 4.416 53.008 4.544 53.008C4.672 53.008 5.024 52.848 5.6 52.528C6.24 52.144 6.592 51.856 6.656 51.664C6.912 51.344 7.072 51.184 7.136 51.184L7.424 51.088C7.424 51.024 7.904 50.512 8.864 49.552C9.888 48.528 10.656 47.76 11.168 47.248L12.608 46.192C13.376 45.36 13.76 44.944 13.76 44.944C14.144 44.88 14.464 44.688 14.72 44.368L15.488 43.792L15.968 43.408C15.968 43.216 16.256 42.928 16.832 42.544L17.504 41.968L17.792 42.352L18.272 42.736C18.272 42.8 18.688 43.088 19.52 43.6C20.352 43.984 20.768 44.24 20.768 44.368C20.768 44.496 20.864 44.624 21.056 44.752C21.312 44.88 21.44 45.04 21.44 45.232C21.504 45.424 21.44 45.424 21.248 45.232C21.184 45.168 21.12 45.2 21.056 45.328C20.992 45.392 20.992 45.456 21.056 45.52L21.152 45.904C21.152 45.968 21.152 46.032 21.152 46.096C21.216 46.096 21.28 46.064 21.344 46C21.472 45.936 21.6 45.968 21.728 46.096C21.92 46.16 21.984 46.224 21.92 46.288C21.856 46.288 21.856 46.32 21.92 46.384C21.984 46.448 22.112 46.48 22.304 46.48C22.624 46.544 22.72 46.64 22.592 46.768L22.496 47.248C22.496 47.504 22.432 47.632 22.304 47.632C22.112 47.632 22.016 47.696 22.016 47.824C22.016 47.888 22.048 47.952 22.112 48.016C22.24 48.08 22.336 48.208 22.4 48.4C22.464 48.528 22.528 48.688 22.592 48.88C22.656 49.072 22.848 49.552 23.168 50.32C23.488 50.768 23.648 51.056 23.648 51.184C23.648 51.504 23.776 51.76 24.032 51.952C24.416 52.272 24.608 52.464 24.608 52.528C24.544 52.656 23.968 52.944 22.88 53.392C21.856 53.776 21.088 54 20.576 54.064L17.216 55.024C16.704 55.152 16.16 55.312 15.584 55.504C15.072 55.632 14.56 55.792 14.048 55.984L10.976 56.752C8.224 57.456 6.272 57.84 5.12 57.904H3.68L4.64 58L5.6 58.288L4.832 58.384C4.64 58.384 4.512 58.416 4.448 58.48C4.384 58.48 4.416 58.512 4.544 58.576C4.608 58.576 4.704 58.64 4.832 58.768C5.024 58.832 5.248 58.896 5.504 58.96C6.464 59.472 7.68 59.728 9.152 59.728C10.176 59.728 11.104 59.6 11.936 59.344C13.088 59.088 14.912 58.8 17.408 58.48C17.792 58.48 18.464 58.352 19.424 58.096L20.768 57.904C20.704 58.16 20.48 58.544 20.096 59.056C19.712 59.504 19.488 59.728 19.424 59.728C19.424 59.728 19.392 59.76 19.328 59.824C19.328 59.888 19.168 60.144 18.848 60.592C18.656 60.848 18.496 61.008 18.368 61.072C18.304 61.136 18.016 61.168 17.504 61.168L15.008 61.36C13.92 61.488 13.248 61.68 12.992 61.936L12.416 62.224C12.16 62.224 12.032 62.256 12.032 62.32C12.032 62.448 12.224 62.512 12.608 62.512C13.056 62.512 13.472 62.608 13.856 62.8L15.392 63.088C15.648 63.088 15.872 63.184 16.064 63.376C16.32 63.632 16.736 63.76 17.312 63.76C18.848 64.08 19.552 64.208 19.424 64.144C21.92 65.296 23.168 65.936 23.168 66.064C23.168 66.32 22.432 67.248 20.96 68.848C19.488 70.448 18.112 71.792 16.832 72.88L14.816 74.704C14.688 74.96 14.368 75.152 13.856 75.28C13.088 75.792 12.128 76.528 10.976 77.488C10.464 78 9.344 78.928 7.616 80.272L5.6 81.904C5.344 82.16 4.672 82.512 3.584 82.96C3.264 83.024 2.944 83.12 2.624 83.248C2.368 83.44 2.208 83.536 2.144 83.536C2.272 83.664 2.496 83.696 2.816 83.632C3.136 83.568 3.424 83.472 3.68 83.344C3.872 83.344 3.936 83.408 3.872 83.536C3.808 83.728 3.84 83.824 3.968 83.824C4.16 83.888 4.384 83.888 4.64 83.824C5.088 83.76 5.632 83.6 6.272 83.344C6.976 83.088 7.456 82.832 7.712 82.576L8.384 82.384C8.576 82.384 8.992 82.224 9.632 81.904C9.824 81.84 10.112 81.68 10.496 81.424C10.88 81.232 11.168 81.104 11.36 81.04C11.936 80.912 12.288 80.784 12.416 80.656C12.672 80.4 12.928 80.208 13.184 80.08C13.696 79.824 14.24 79.504 14.816 79.12C15.392 78.8 15.808 78.544 16.064 78.352C16.512 78.032 16.928 77.808 17.312 77.68C17.44 77.552 17.792 77.328 18.368 77.008C18.496 76.944 18.624 76.816 18.752 76.624C18.944 76.496 19.168 76.368 19.424 76.24C20.064 75.856 20.384 75.664 20.384 75.664C21.024 75.024 21.408 74.704 21.536 74.704C21.664 74.704 21.824 74.576 22.016 74.32L23.36 73.264C24.192 72.688 24.768 72.24 25.088 71.92C26.56 70.448 27.648 69.584 28.352 69.328C28.608 69.2 28.864 69.264 29.12 69.52C29.376 69.712 29.792 70.064 30.368 70.576C30.624 70.832 30.816 71.056 30.944 71.248C31.072 71.504 31.136 71.76 31.136 72.016C31.136 72.272 31.264 72.496 31.52 72.688C31.712 72.816 31.808 72.976 31.808 73.168C31.808 73.36 31.84 73.52 31.904 73.648C31.968 73.776 32.064 73.84 32.192 73.84C32.448 73.968 32.704 74.032 32.96 74.032C33.088 74.032 33.568 74.352 34.4 74.992C35.296 75.632 35.968 76.144 36.416 76.528C36.416 76.656 36.576 76.784 36.896 76.912C37.408 77.168 37.792 77.424 38.048 77.68C38.56 77.936 39.008 78.064 39.392 78.064C39.712 78.064 39.872 77.872 39.872 77.488C39.872 77.232 40.192 77.104 40.832 77.104C41.28 77.104 41.344 76.912 41.024 76.528C40.896 76.4 40.896 76.208 41.024 75.952C41.088 75.824 41.184 75.728 41.312 75.664L41.984 75.952C42.112 76.016 42.24 76.08 42.368 76.144C42.56 76.208 42.688 76.208 42.752 76.144C42.816 76.08 42.72 75.824 42.464 75.376C42.272 74.928 42.112 74.672 41.984 74.608C41.92 74.608 41.888 74.48 41.888 74.224C41.888 74.032 41.856 73.904 41.792 73.84L40.736 72.496C40.032 71.728 39.264 70.928 38.432 70.096C37.664 69.328 36.928 68.656 36.224 68.08C35.712 67.568 35.104 67.088 34.4 66.64C33.696 66.128 33.152 65.712 32.768 65.392C32.64 65.264 32.48 65.168 32.288 65.104C32.096 65.04 32 64.976 32 64.912C32 64.72 32.224 64.592 32.672 64.528L33.44 63.952C33.632 63.76 33.728 63.664 33.728 63.664C34.048 63.664 34.752 62.768 35.84 60.976C36.288 60.4 37.248 59.376 38.72 57.904C40.192 56.368 41.12 55.44 41.504 55.12C41.696 54.992 41.792 54.864 41.792 54.736C41.856 54.544 41.888 54.256 41.888 53.872C41.888 53.424 41.856 53.104 41.792 52.912C41.792 52.656 41.728 52.464 41.6 52.336L40.928 51.856C40.352 51.856 40.48 51.664 41.312 51.28C42.336 50.96 42.848 50.448 42.848 49.744C42.912 49.552 42.912 49.392 42.848 49.264C42.848 49.136 42.72 49.072 42.464 49.072C41.824 48.944 41.632 48.752 41.888 48.496C42.08 48.368 42.176 48.24 42.176 48.112C42.176 47.984 42.08 47.888 41.888 47.824C41.76 47.76 41.152 47.728 40.064 47.728C38.72 47.728 37.664 47.76 36.896 47.824C35.552 48.016 34.816 48.208 34.688 48.4C33.92 48.72 33.728 48.752 34.112 48.496C34.368 48.368 35.136 47.472 36.416 45.808C36.672 45.424 37.024 45.136 37.472 44.944C37.984 44.688 38.496 44.528 39.008 44.464C39.456 44.464 39.776 44.368 39.968 44.176C40.096 44.048 40.32 43.984 40.64 43.984C40.768 43.984 40.928 43.92 41.12 43.792C41.312 43.6 41.408 43.376 41.408 43.12C41.408 42.992 41.536 42.736 41.792 42.352L42.848 40.912C43.232 40.4 43.456 40.144 43.52 40.144C43.712 39.952 44 39.536 44.384 38.896C44.832 38.256 45.056 37.872 45.056 37.744C45.12 37.616 45.248 37.424 45.44 37.168C45.696 36.912 45.888 36.752 46.016 36.688C46.144 36.56 46.304 36.336 46.496 36.016C46.752 35.632 46.912 35.312 46.976 35.056C46.976 34.992 47.104 34.832 47.36 34.576L47.84 34.096L48.32 34.48C49.024 34.736 49.696 34.864 50.336 34.864C50.656 34.864 51.2 34.8 51.968 34.672C52.992 34.48 54.08 34.16 55.232 33.712C56.384 33.2 57.312 32.688 58.016 32.176C58.976 31.664 59.648 31.312 60.032 31.12L61.088 30.64C61.408 30.448 61.632 30.416 61.76 30.544C61.888 30.672 61.92 30.928 61.856 31.312C61.792 31.696 61.632 32.08 61.376 32.464L60.896 33.328C60.512 33.968 60.064 34.864 59.552 36.016C59.04 37.104 58.656 37.904 58.4 38.416L58.304 38.8C57.856 39.76 57.632 40.336 57.632 40.528C57.632 40.72 56.992 40.592 55.712 40.144C55.2 39.952 54.304 39.792 53.024 39.664C52.64 39.6 52.16 39.568 51.584 39.568C50.176 39.568 48.704 40.08 47.168 41.104C46.016 42 45.216 42.448 44.768 42.448C44.384 42.448 44.096 42.544 43.904 42.736C43.776 42.8 43.712 42.864 43.712 42.928C43.712 42.992 43.776 43.056 43.904 43.12C44.096 43.376 44.064 43.664 43.808 43.984L43.52 44.272L44.096 44.944C44.608 45.456 44.864 45.776 44.864 45.904C44.928 46.032 45.056 46.192 45.248 46.384C45.44 46.576 45.632 46.672 45.824 46.672C45.952 46.672 46.144 46.512 46.4 46.192C46.72 45.808 46.912 45.424 46.976 45.04C46.976 44.784 47.296 44.4 47.936 43.888C48.896 43.056 49.696 42.48 50.336 42.16C51.04 41.84 51.712 41.68 52.352 41.68C52.864 41.68 53.408 41.776 53.984 41.968C55.456 42.544 56.192 42.928 56.192 43.12C56.256 43.376 56 44.048 55.424 45.136C54.912 46.16 54.432 46.992 53.984 47.632C53.216 48.592 52.16 50.128 50.816 52.24C49.152 54.928 47.68 56.976 46.4 58.384L44.672 60.4C42.304 62.96 40.704 64.496 39.872 65.008L38.816 65.872C37.344 66.64 36.608 67.056 36.608 67.12C36.608 67.312 36.896 67.248 37.472 66.928L39.008 66.352V66.64V66.928C39.264 66.864 39.68 66.672 40.256 66.352C40.832 66.032 41.376 65.648 41.888 65.2C42.08 65.072 42.272 64.976 42.464 64.912C42.656 64.784 42.816 64.72 42.944 64.72L43.904 64.048C44.288 63.728 44.544 63.568 44.672 63.568C44.736 63.568 44.832 63.472 44.96 63.28C45.088 63.088 45.216 62.96 45.344 62.896C45.792 62.448 46.08 62.224 46.208 62.224C46.272 62.224 46.432 62.128 46.688 61.936C46.688 61.744 46.752 61.648 46.88 61.648C47.008 61.648 47.2 61.488 47.456 61.168C47.712 60.848 47.872 60.592 47.936 60.4C47.936 60.272 47.968 60.176 48.032 60.112C48.096 60.048 48.16 60.016 48.224 60.016C48.352 60.016 48.512 59.952 48.704 59.824C48.896 59.696 49.088 59.472 49.28 59.152C49.6 58.896 50.272 58.256 51.296 57.232C51.744 56.848 52.128 56.464 52.448 56.08C52.448 55.952 53.024 55.312 54.176 54.16C56.864 51.408 58.208 49.904 58.208 49.648C58.208 49.52 58.432 49.2 58.88 48.688C59.392 48.176 59.776 47.888 60.032 47.824C60.224 47.76 60.384 47.76 60.512 47.824C60.64 47.824 60.544 47.856 60.224 47.92C60.096 48.048 60.032 48.176 60.032 48.304C60.096 48.368 60.256 48.368 60.512 48.304C60.896 48.176 61.312 48.368 61.76 48.88L63.872 51.472C66.624 54.864 68.384 57.168 69.152 58.384L72.128 63.184L73.28 65.104C73.792 66.064 74.112 66.672 74.24 66.928C74.752 67.632 75.008 68.048 75.008 68.176C75.008 68.368 72.192 68.464 66.56 68.464C66.048 68.464 64.8 68.496 62.816 68.56C60.832 68.56 59.84 68.624 59.84 68.752C59.968 68.88 60.064 68.944 60.128 68.944H60.8C60.8 69.008 61.088 69.104 61.664 69.232C62.176 69.232 62.528 69.296 62.72 69.424C62.72 69.552 62.976 69.616 63.488 69.616L65.504 69.808C65.888 69.936 66.432 70 67.136 70C67.392 69.872 67.456 69.872 67.328 70C67.264 70.192 67.328 70.224 67.52 70.096C68.096 70.096 68.64 70.128 69.152 70.192C69.664 70.384 70.016 70.48 70.208 70.48V70.672C70.208 70.8 70.304 70.896 70.496 70.96C70.752 71.024 71.072 71.056 71.456 71.056C72.096 71.12 72.704 71.184 73.28 71.248C73.92 71.376 74.304 71.536 74.432 71.728L75.392 72.016C75.904 72.016 76.16 72.112 76.16 72.304C76.416 72.56 76.704 72.72 77.024 72.784C77.344 72.912 77.728 73.232 78.176 73.744C78.688 74.256 79.072 74.736 79.328 75.184C79.52 75.632 79.808 76.048 80.192 76.432L81.056 77.392C81.12 77.648 81.344 78.032 81.728 78.544C82.048 78.864 82.272 79.248 82.4 79.696C82.528 79.952 82.688 80.144 82.88 80.272C83.072 80.4 83.2 80.528 83.264 80.656C84.16 81.232 84.832 81.744 85.28 82.192C85.28 82.384 85.376 82.48 85.568 82.48C85.824 82.544 86.016 82.512 86.144 82.384C86.272 82.256 86.56 82.288 87.008 82.48L88.256 82.768C88.448 82.832 88.608 82.832 88.736 82.768C88.864 82.768 88.928 82.704 88.928 82.576C88.928 82.448 89.024 82.32 89.216 82.192C89.28 82.128 89.312 82.032 89.312 81.904C89.312 81.648 89.376 81.52 89.504 81.52C89.76 81.52 89.824 81.424 89.696 81.232C89.632 81.04 89.6 80.72 89.6 80.272C89.6 79.952 89.632 79.664 89.696 79.408C89.888 79.152 89.92 78.864 89.792 78.544C89.728 78.288 89.568 77.872 89.312 77.296L88.352 76.144C87.392 74.8 86.72 73.744 86.336 72.976C86.208 72.528 86.112 72.272 86.048 72.208C85.984 72.144 85.952 71.984 85.952 71.728C85.952 71.472 85.888 71.216 85.76 70.96C85.696 70.832 85.696 70.64 85.76 70.384L86.048 68.944C86.048 68.56 86.016 68.304 85.952 68.176C85.952 67.984 85.856 67.824 85.664 67.696L85.184 67.12C85.184 66.992 85.024 66.928 84.704 66.928C84.512 66.928 84.384 66.864 84.32 66.736C84.256 66.544 84.16 66.416 84.032 66.352C83.904 66.224 83.808 66.224 83.744 66.352C83.616 66.48 83.392 66.512 83.072 66.448C82.816 66.384 82.56 66.224 82.304 65.968C82.176 65.584 81.792 65.232 81.152 64.912C80.512 64.656 80.096 64.336 79.904 63.952C79.776 63.888 79.648 63.76 79.52 63.568C79.392 63.312 79.296 63.088 79.232 62.896C78.784 62.512 78.56 62.256 78.56 62.128C78.56 62 78.432 61.808 78.176 61.552C78.112 61.36 77.984 61.168 77.792 60.976C77.6 60.72 77.408 60.4 77.216 60.016C75.936 58.096 74.624 56.4 73.28 54.928C72 53.392 70.048 51.312 67.424 48.688L63.104 44.368L63.584 43.792C63.904 43.408 64.064 43.088 64.064 42.832C64.064 42.768 64.128 42.736 64.256 42.736C64.32 42.736 64.352 42.608 64.352 42.352C64.352 42.16 64.576 41.936 65.024 41.68C65.024 41.68 65.216 41.456 65.6 41.008C65.6 40.816 65.664 40.72 65.792 40.72C65.984 40.528 66.08 40.304 66.08 40.048L67.424 37.744L68.192 36.016L68.768 34.96C68.832 34.832 68.992 34.384 69.248 33.616C69.376 33.104 69.568 32.72 69.824 32.464C70.08 32.144 70.304 31.984 70.496 31.984C70.752 31.984 71.008 31.856 71.264 31.6C71.52 31.28 71.648 30.992 71.648 30.736L71.552 30.064C71.552 29.36 71.456 28.912 71.264 28.72C71.136 28.528 70.784 28.304 70.208 28.048C69.696 27.792 69.248 27.664 68.864 27.664C68.16 27.536 67.744 27.408 67.616 27.28C67.232 26.96 67.04 26.8 67.04 26.8C66.912 26.8 66.848 26.768 66.848 26.704C66.912 26.576 67.008 26.48 67.136 26.416C67.456 26.288 67.616 26.256 67.616 26.32C67.68 26.384 68.096 26.16 68.864 25.648C69.184 25.2 69.536 24.848 69.92 24.592C69.984 24.592 70.208 24.4 70.592 24.016C70.912 23.76 71.296 23.472 71.744 23.152C72.256 22.768 72.608 22.576 72.8 22.576C72.928 22.576 73.088 22.448 73.28 22.192L74.144 21.712C74.272 21.648 74.432 21.616 74.624 21.616C74.816 21.616 74.976 21.584 75.104 21.52C75.168 21.52 75.296 21.52 75.488 21.52C75.68 21.456 75.84 21.456 75.968 21.52C76.288 21.584 76.736 21.424 77.312 21.04L78.464 20.464C78.912 20.208 79.136 19.984 79.136 19.792C79.136 19.6 79.104 19.472 79.04 19.408L78.848 18.448C78.976 18.256 78.912 18.064 78.656 17.872C78.4 17.68 77.984 17.488 77.408 17.296C76.896 17.104 76.512 17.008 76.256 17.008C75.936 17.008 75.776 16.976 75.776 16.912C75.648 16.784 75.456 16.72 75.2 16.72C74.816 16.784 74.528 16.816 74.336 16.816C74.208 16.752 74.144 16.624 74.144 16.432C74.016 16.112 73.856 16.016 73.664 16.144C73.408 16.144 73.248 16.112 73.184 16.048C73.12 15.92 73.024 15.856 72.896 15.856C72.832 15.856 72.704 15.92 72.512 16.048C72.448 16.176 72.32 16.208 72.128 16.144C71.872 16.016 71.616 16.048 71.36 16.24C71.104 16.368 70.688 16.688 70.112 17.2C69.728 17.584 69.12 17.968 68.288 18.352C67.904 18.48 67.488 18.672 67.04 18.928C66.656 19.184 66.304 19.408 65.984 19.6C64.896 20.368 63.456 21.52 61.664 23.056C59.936 24.592 58.592 25.776 57.632 26.608C55.968 28.272 54.048 29.712 51.872 30.928C51.424 31.184 50.944 31.376 50.432 31.504C49.984 31.632 49.6 31.696 49.28 31.696H49.184C49.12 31.632 49.152 31.376 49.28 30.928C49.472 30.48 49.664 30.16 49.856 29.968L50.144 29.104C50.272 28.784 50.528 28.464 50.912 28.144C51.04 27.952 51.168 27.728 51.296 27.472C51.488 27.216 51.648 26.992 51.776 26.8C52.224 25.904 52.544 25.392 52.736 25.264C52.8 25.136 52.864 25.04 52.928 24.976C52.992 24.848 53.024 24.72 53.024 24.592C53.024 24.464 53.088 24.336 53.216 24.208C53.344 24.016 53.472 23.824 53.6 23.632C53.856 23.248 54.016 22.896 54.08 22.576C54.08 22.512 54.112 22.416 54.176 22.288C54.304 22.16 54.464 22.032 54.656 21.904C54.848 21.712 54.976 21.52 55.04 21.328C55.04 21.072 55.136 20.912 55.328 20.848C55.648 20.72 55.84 20.464 55.904 20.08C56.224 19.184 56.544 18.608 56.864 18.352C56.992 18.224 57.056 18.096 57.056 17.968C57.056 17.904 57.12 17.808 57.248 17.68C57.376 17.552 57.44 17.392 57.44 17.2C57.44 16.88 57.504 16.72 57.632 16.72L58.016 16.24C58.336 15.536 58.688 14.992 59.072 14.608L59.264 14.224C59.264 14.032 59.52 13.488 60.032 12.592C60.544 11.696 60.896 11.152 61.088 10.96C61.472 10.576 61.664 10.288 61.664 10.096C61.664 9.968 61.6 9.776 61.472 9.51999C61.408 9.264 61.088 8.848 60.512 8.272C60 7.632 59.584 7.248 59.264 7.12C58.88 6.864 58.528 6.736 58.208 6.736C56.864 6.416 55.68 5.776 54.656 4.816C54.08 4.368 53.664 4.144 53.408 4.144C53.28 4.144 53.216 4.208 53.216 4.336C53.216 4.528 52.864 4.72 52.16 4.912C51.968 5.104 51.776 5.264 51.584 5.392C51.456 5.456 51.36 5.52 51.296 5.584L50.912 5.68H50.624L50.912 5.872C51.232 6.064 51.648 6.352 52.16 6.736C52.736 7.12 53.184 7.43999 53.504 7.696C53.632 7.824 53.696 7.984 53.696 8.17599C53.696 8.304 53.632 8.528 53.504 8.848C52.544 12.112 51.776 14.416 51.2 15.76L48.416 23.44C48.032 24.656 47.744 25.584 47.552 26.224C46.784 28.4 46.336 29.552 46.208 29.68C46.08 30 45.952 30.416 45.824 30.928C45.312 32.592 44.448 34.736 43.232 37.36C42.016 39.92 41.28 41.2 41.024 41.2C40.832 41.136 40.576 41.008 40.256 40.816C39.936 40.56 39.68 40.336 39.488 40.144C39.232 39.888 38.976 39.728 38.72 39.664C37.888 39.216 37.28 38.544 36.896 37.648C36.64 37.2 36.48 36.976 36.416 36.976C36.16 36.976 35.872 37.136 35.552 37.456C35.232 37.712 34.944 37.968 34.688 38.224L33.824 38.8L33.44 39.088L34.016 39.472C34.336 39.536 34.528 39.632 34.592 39.76C34.72 39.824 34.688 39.856 34.496 39.856C34.432 39.856 34.368 39.888 34.304 39.952C34.24 39.952 34.272 39.984 34.4 40.048C34.4 40.24 34.144 40.624 33.632 41.2C32.928 42.224 32.416 42.736 32.096 42.736C32.096 42.16 32.128 41.584 32.192 41.008C32.384 39.792 32.48 37.776 32.48 34.96V30.544C32.672 30.352 33.152 30.672 33.92 31.504C34.432 31.888 34.688 32.144 34.688 32.272L34.592 32.464C34.464 32.592 34.496 32.784 34.688 33.04C34.816 33.488 34.88 33.968 34.88 34.48C34.88 34.8 34.848 35.024 34.784 35.152C34.72 35.408 34.752 35.6 34.88 35.728C35.072 35.92 35.52 36.112 36.224 36.304L38.432 36.688C39.072 36.752 39.52 36.752 39.776 36.688C40.032 36.56 40.352 36.24 40.736 35.728C40.992 35.088 41.12 34.448 41.12 33.808C41.12 33.232 41.056 32.848 40.928 32.656C40.8 32.272 40.416 31.792 39.776 31.216C39.136 30.64 38.496 30.192 37.856 29.872L36.704 29.296C36.32 29.04 35.232 28.688 33.44 28.24C32.992 28.112 32.736 28.016 32.672 27.952C32.608 27.824 32.576 27.376 32.576 26.608C32.576 26.16 32.576 25.872 32.576 25.744C32.64 25.552 32.736 25.424 32.864 25.36C33.76 24.976 34.464 24.752 34.976 24.688C35.552 24.624 36.416 24.592 37.568 24.592C38.4 24.592 39.008 24.56 39.392 24.496C39.776 24.432 40.16 24.272 40.544 24.016C40.672 23.888 40.8 23.792 40.928 23.728C41.12 23.664 41.216 23.6 41.216 23.536C41.216 23.536 41.344 23.312 41.6 22.864C41.728 22.736 41.792 22.64 41.792 22.576C41.792 22.512 41.76 22.416 41.696 22.288L41.312 22.096C41.248 22.096 41.12 22 40.928 21.808C40.864 21.616 40.704 21.52 40.448 21.52C40.192 21.52 40 21.424 39.872 21.232C39.744 20.912 39.744 20.688 39.872 20.56C39.936 20.496 39.968 20.432 39.968 20.368C39.968 20.304 39.936 20.208 39.872 20.08C39.68 19.888 39.328 19.76 38.816 19.696C37.088 19.632 35.936 19.344 35.36 18.832C35.04 18.576 34.56 18.448 33.92 18.448L32.576 18.544C32.128 18.608 31.808 18.64 31.616 18.64C31.488 18.576 31.424 18.48 31.424 18.352C31.424 18.096 31.584 17.872 31.904 17.68C32.224 17.552 32.512 17.328 32.768 17.008C33.088 16.688 33.408 16.432 33.728 16.24C34.176 15.792 34.56 15.44 34.88 15.184C34.944 15.184 35.168 14.96 35.552 14.512C35.744 14.192 36.032 13.968 36.416 13.84C36.672 13.648 36.8 13.552 36.8 13.552C36.8 13.36 36.864 13.264 36.992 13.264C37.248 13.264 37.376 13.168 37.376 12.976C37.376 12.912 37.536 12.816 37.856 12.688C37.984 12.688 38.496 12.336 39.392 11.632C40.096 10.864 40.608 10.48 40.928 10.48C41.76 10.48 42.176 9.712 42.176 8.17599C42.176 7.536 42.08 6.992 41.888 6.544C41.696 6.352 41.408 6.16 41.024 5.96799C40.704 5.776 40.32 5.616 39.872 5.488C39.68 5.488 39.328 5.328 38.816 5.008C38.368 4.624 38.016 4.304 37.76 4.048C37.568 3.728 37.344 3.568 37.088 3.568C36.96 3.568 36.672 3.696 36.224 3.952C35.904 4.208 35.616 4.4 35.36 4.528L34.784 5.10399L33.824 5.2C33.12 5.136 33.024 5.35999 33.536 5.872C33.792 6.064 33.92 6.256 33.92 6.44799L34.496 6.832C34.816 7.088 34.976 7.28 34.976 7.408L34.592 8.17599C34.144 8.56 33.856 9.008 33.728 9.51999C33.6 9.648 33.44 9.84 33.248 10.096C33.056 10.352 32.8 10.64 32.48 10.96C32.224 11.216 31.712 11.856 30.944 12.88C30.624 13.52 30.336 13.84 30.08 13.84C30.016 13.84 29.952 13.808 29.888 13.744C29.888 13.616 29.888 13.52 29.888 13.456C29.888 12.944 29.76 12.336 29.504 11.632C29.248 10.672 29.12 10.192 29.12 10.192C29.12 9.872 29.28 9.616 29.6 9.424C29.728 9.296 29.792 9.168 29.792 9.04C29.856 8.848 29.856 8.656 29.792 8.464V8.17599L29.216 8.56C28.896 9.008 28.704 9.2 28.64 9.136C28.448 8.944 28.128 8.56 27.68 7.984C26.848 6.832 25.472 5.392 23.552 3.664C22.016 2.384 20.416 1.456 18.752 0.879997L17.216 0.687994C17.024 0.687994 16.928 0.719995 16.928 0.783998ZM25.184 29.968C25.248 30.224 25.28 30.576 25.28 31.024C25.28 31.344 25.248 31.504 25.184 31.504C25.056 31.504 24.768 31.152 24.32 30.448C24.192 30.256 24.16 30.128 24.224 30.064C24.352 29.936 24.48 29.808 24.608 29.68L24.992 29.392C25.12 29.392 25.184 29.584 25.184 29.968ZM19.232 32.944C18.016 33.456 17.472 33.648 17.6 33.52C17.856 33.264 18.272 33.008 18.848 32.752C19.424 32.432 19.84 32.208 20.096 32.08C20.224 32.144 20.128 32.304 19.808 32.56L19.232 32.944ZM25.184 36.976C25.184 37.744 25.12 38.576 24.992 39.472C24.928 40.304 24.832 40.88 24.704 41.2L22.784 40.816C21.696 40.56 20.992 40.368 20.672 40.24C20.416 40.24 20.192 40.176 20 40.048C19.936 39.984 20.064 39.824 20.384 39.568C20.704 39.248 20.928 39.024 21.056 38.896C21.376 38.64 21.632 38.384 21.824 38.128C22.016 37.872 22.176 37.712 22.304 37.648C22.432 37.456 22.56 37.36 22.688 37.36C22.752 37.36 22.944 37.168 23.264 36.784C23.968 36.272 24.48 36.016 24.8 36.016H24.896C25.088 36.08 25.184 36.4 25.184 36.976ZM19.616 41.104C19.616 41.168 19.552 41.2 19.424 41.2C19.168 41.2 19.104 41.296 19.232 41.488C19.424 41.68 19.68 41.84 20 41.968C20.256 42.032 20.416 42.096 20.48 42.16C20.608 42.224 20.64 42.288 20.576 42.352C20.576 42.544 20.608 42.672 20.672 42.736C20.736 42.8 20.64 42.8 20.384 42.736C20.128 42.672 19.808 42.608 19.424 42.544L18.464 42.256L17.984 42.064C17.92 41.936 18.08 41.744 18.464 41.488C18.784 41.104 19.104 40.912 19.424 40.912C19.552 40.912 19.616 40.976 19.616 41.104ZM32.672 54.16C32.224 54.544 31.68 55.088 31.04 55.792C30.464 56.496 29.952 57.2 29.504 57.904C29.056 58.544 28.608 59.216 28.16 59.92C27.712 60.56 27.424 61.04 27.296 61.36C27.296 61.616 27.136 61.84 26.816 62.032L26.528 62.512L25.088 62.128L22.592 61.648L21.44 61.36C21.44 61.296 21.984 60.752 23.072 59.728C24.16 58.64 25.056 57.776 25.76 57.136C26.4 56.624 26.944 56.24 27.392 55.984C27.84 55.728 28.64 55.344 29.792 54.832C31.072 54.256 31.936 53.904 32.384 53.776C32.896 53.584 33.12 53.584 33.056 53.776L32.672 54.16ZM63.488 114.632C63.36 114.76 63.232 114.92 63.104 115.112C62.976 115.24 62.88 115.304 62.816 115.304C62.56 115.304 62.272 115.56 61.952 116.072C61.632 116.52 61.248 116.744 60.8 116.744H60.512C60.192 116.68 59.936 116.744 59.744 116.936C59.68 117.192 59.424 117.32 58.976 117.32C58.656 117.32 58.432 117.416 58.304 117.608C58.24 117.736 58.208 117.864 58.208 117.992C58.208 118.12 58.272 118.216 58.4 118.28C58.528 118.472 58.688 118.568 58.88 118.568C59.072 118.568 59.264 118.76 59.456 119.144L60.032 119.624L59.168 120.68C58.4 121.832 57.984 122.44 57.92 122.504C57.536 123.08 57.184 123.624 56.864 124.136C56.544 124.648 56.288 125.064 56.096 125.384C54.048 128.072 52.896 129.544 52.64 129.8C52.448 130.12 52.224 130.472 51.968 130.856C51.712 131.176 51.456 131.464 51.2 131.72C50.432 132.872 49.888 133.608 49.568 133.928C49.248 134.504 48.864 135.048 48.416 135.56L46.4 138.248H46.976C47.168 138.184 47.424 138.024 47.744 137.768C48 137.448 48.288 137.128 48.608 136.808C48.736 136.744 49.248 136.296 50.144 135.464C50.4 135.016 50.88 134.472 51.584 133.832C51.904 133.64 52.32 133.256 52.832 132.68C53.344 132.104 53.696 131.688 53.888 131.432C53.952 131.368 53.984 131.336 53.984 131.336C54.048 131.272 54.08 131.272 54.08 131.336C54.144 131.336 54.176 131.368 54.176 131.432C54.176 131.496 54.144 131.56 54.08 131.624C53.952 131.752 53.888 131.88 53.888 132.008C53.888 132.264 53.792 132.456 53.6 132.584C53.344 132.904 53.344 132.968 53.6 132.776C53.856 132.52 54.176 132.168 54.56 131.72C55.328 130.952 55.776 130.536 55.904 130.472C56.032 130.472 56.544 129.928 57.44 128.84C58.464 128.008 58.976 127.592 58.976 127.592C59.04 127.592 59.552 127.176 60.512 126.344C62.048 124.808 63.2 123.912 63.968 123.656C64.224 123.528 64.448 123.368 64.64 123.176C64.896 122.92 65.152 122.728 65.408 122.6L66.176 121.832L67.328 121.736C67.776 121.736 68.096 121.768 68.288 121.832C68.544 121.832 68.704 121.896 68.768 122.024C68.96 122.216 69.312 122.376 69.824 122.504C70.336 122.504 70.752 122.408 71.072 122.216C71.648 121.832 71.936 121.48 71.936 121.16L71.744 120.584L71.456 119.72C71.456 119.528 71.328 119.144 71.072 118.568C70.752 118.12 69.92 117.512 68.576 116.744C68.32 116.552 68 116.328 67.616 116.072C67.296 115.752 67.04 115.432 66.848 115.112C66.784 114.92 66.688 114.824 66.56 114.824C66.432 114.76 66.24 114.728 65.984 114.728C65.472 114.728 65.184 114.664 65.12 114.536C64.864 114.024 64.32 114.056 63.488 114.632ZM17.696 124.52C17.248 124.776 16.96 124.904 16.832 124.904C16.256 124.904 16.16 125.384 16.544 126.344C16.736 126.984 17.152 127.752 17.792 128.648C17.984 128.904 18.08 129.192 18.08 129.512C18.08 129.832 17.824 130.44 17.312 131.336L14.24 135.752C12.704 137.928 11.712 139.464 11.264 140.36C10.624 141.448 10.016 142.536 9.44 143.624C8.864 144.648 8.48 145.384 8.288 145.832C8.288 145.96 8.352 146.024 8.48 146.024C8.608 145.96 8.704 145.832 8.768 145.64L9.632 144.584C10.016 144.2 10.336 143.816 10.592 143.432C10.784 143.048 11.072 142.76 11.456 142.568C11.84 142.312 12.096 142.056 12.224 141.8C12.544 141.48 12.736 141.384 12.8 141.512C12.928 141.576 13.12 141.48 13.376 141.224C13.696 140.904 14.144 140.36 14.72 139.592C15.168 138.952 15.808 138.216 16.64 137.384C17.536 136.552 18.176 136.008 18.56 135.752C18.752 135.624 18.912 135.56 19.04 135.56C19.232 135.56 19.36 135.592 19.424 135.656C19.68 135.72 19.968 135.72 20.288 135.656C21.12 135.464 21.888 135.368 22.592 135.368C23.104 135.368 23.744 135.432 24.512 135.56L25.568 135.656C25.76 135.656 25.92 135.592 26.048 135.464C26.112 135.336 26.144 135.144 26.144 134.888C26.208 134.632 26.208 134.248 26.144 133.736C26.144 132.776 26.016 132.104 25.76 131.72C25.504 131.08 25.12 130.44 24.608 129.8C24.16 129.16 23.808 128.712 23.552 128.456L22.208 127.208C22.016 126.824 21.76 126.536 21.44 126.344C21.376 126.344 21.152 126.12 20.768 125.672C20.448 125.16 20.128 124.84 19.808 124.712C19.552 124.712 19.232 124.616 18.848 124.424C18.592 124.168 18.4 124.072 18.272 124.136C18.144 124.136 17.952 124.264 17.696 124.52ZM51.296 126.248C50.784 126.76 50.144 127.304 49.376 127.88L47.072 129.896C46.368 130.472 46.016 130.76 46.016 130.76C45.888 130.76 45.76 130.568 45.632 130.184C45.376 129.416 44.896 128.648 44.192 127.88C43.488 127.048 42.816 126.504 42.176 126.248C41.92 126.12 41.6 126.056 41.216 126.056C41.024 126.056 40.928 126.088 40.928 126.152L41.12 126.344C41.184 126.408 41.216 126.472 41.216 126.536C41.216 126.536 41.184 126.536 41.12 126.536C40.992 126.6 40.672 126.632 40.16 126.632C39.2 126.824 38.72 127.016 38.72 127.208C38.72 127.272 39.04 127.368 39.68 127.496C40.192 127.496 40.608 127.624 40.928 127.88C41.76 128.648 42.176 129.512 42.176 130.472C42.176 130.984 42.112 131.368 41.984 131.624C41.728 132.008 41.568 132.2 41.504 132.2C41.312 132.264 41.088 132.488 40.832 132.872C40.64 133.256 40.512 133.544 40.448 133.736C40.384 133.736 40.288 133.8 40.16 133.928C40.096 133.992 40 134.088 39.872 134.216C39.68 134.344 39.52 134.472 39.392 134.6C39.328 134.728 39.296 134.888 39.296 135.08C39.296 135.4 39.328 135.624 39.392 135.752C39.456 135.816 39.552 135.912 39.68 136.04C39.936 136.232 40.16 136.584 40.352 137.096C40.608 137.608 40.736 138.056 40.736 138.44C40.736 138.696 40.864 139.112 41.12 139.688C41.376 140.072 41.728 140.36 42.176 140.552C42.56 140.744 42.944 140.84 43.328 140.84L43.808 140.936V138.92C43.808 138.28 43.84 137.8 43.904 137.48C43.968 137.096 44.064 136.84 44.192 136.712C44.32 136.584 44.384 136.424 44.384 136.232C44.448 136.104 44.576 135.944 44.768 135.752C44.96 135.56 45.216 135.304 45.536 134.984C46.368 134.28 47.04 133.576 47.552 132.872C48.128 132.168 48.448 131.688 48.512 131.432C48.576 131.176 48.832 130.76 49.28 130.184C49.536 129.864 49.92 129.416 50.432 128.84C50.496 128.584 50.88 128.072 51.584 127.304C52.16 126.536 52.448 126.12 52.448 126.056C52.448 125.864 52.352 125.8 52.16 125.864C51.968 125.864 51.68 125.992 51.296 126.248ZM64.928 130.76C64.928 130.824 64.896 130.888 64.832 130.952C64.768 131.016 64.736 131.144 64.736 131.336C64.736 131.528 64.64 131.624 64.448 131.624C64.192 131.56 64 131.592 63.872 131.72H63.488C63.296 131.72 63.104 131.816 62.912 132.008C62.912 132.2 62.72 132.392 62.336 132.584C62.272 132.584 61.664 132.936 60.512 133.64L58.496 134.6C57.92 134.856 57.408 135.176 56.96 135.56C55.232 136.392 53.76 137.224 52.544 138.056C52.352 138.248 51.808 138.6 50.912 139.112L49.376 140.072C48.8 140.456 48.128 140.84 47.36 141.224C46.656 141.608 45.984 141.896 45.344 142.088L44.576 142.28L44.192 142.184C44.064 142.12 43.872 142.088 43.616 142.088C43.552 142.152 43.2 142.184 42.56 142.184C42.048 142.184 41.792 142.248 41.792 142.376C41.792 142.504 41.6 142.568 41.216 142.568C40.448 142.568 40.416 142.888 41.12 143.528C41.952 144.296 42.368 144.68 42.368 144.68C42.88 145.192 43.36 145.448 43.808 145.448C44 145.448 44.352 145.512 44.864 145.64C45.056 145.704 45.312 145.704 45.632 145.64C45.952 145.576 46.336 145.416 46.784 145.16C47.872 144.776 48.448 144.552 48.512 144.488C48.64 144.36 48.864 144.2 49.184 144.008C49.504 143.816 49.856 143.656 50.24 143.528C50.56 143.272 50.848 143.048 51.104 142.856C51.424 142.664 51.68 142.504 51.872 142.376L52.256 141.992C52.32 141.992 52.64 141.8 53.216 141.416C53.792 140.968 54.176 140.744 54.368 140.744C54.56 140.68 54.848 140.52 55.232 140.264C55.616 139.944 56.032 139.56 56.48 139.112C57.312 138.344 58.272 137.736 59.36 137.288C59.424 137.16 59.584 137 59.84 136.808C60.16 136.616 60.384 136.424 60.512 136.232C61.344 135.336 62.08 134.696 62.72 134.312C63.104 134.12 63.328 134.088 63.392 134.216C63.776 134.728 63.264 137.448 61.856 142.376C61.28 144.104 60.704 145.736 60.128 147.272C59.552 148.744 59.168 149.48 58.976 149.48C58.912 149.48 58.816 149.512 58.688 149.576C58.624 149.64 58.56 149.736 58.496 149.864C57.984 150.12 57.536 150.248 57.152 150.248C56.96 150.248 56.8 150.216 56.672 150.152C56.544 150.088 56.192 150.184 55.616 150.44C55.232 150.696 54.784 150.824 54.272 150.824C53.568 150.824 52.672 150.984 51.584 151.304C50.496 151.624 49.76 151.912 49.376 152.168C48.8 152.552 48.416 152.776 48.224 152.84L46.208 153.896C45.44 154.408 44.96 154.664 44.768 154.664C44.512 154.664 44.128 154.856 43.616 155.24L42.464 155.816C42.272 155.56 42.08 155.208 41.888 154.76C41.696 154.312 41.568 153.96 41.504 153.704C41.504 153.384 41.44 153.16 41.312 153.032C41.248 152.84 41.152 152.776 41.024 152.84C40.896 152.84 40.672 152.648 40.352 152.264C39.904 151.688 39.104 150.824 37.952 149.672C36.8 148.52 36.16 147.944 36.032 147.944L35.552 147.848C34.784 147.144 33.44 146.792 31.52 146.792C30.624 146.792 30.048 146.856 29.792 146.984C29.344 147.304 29.184 147.56 29.312 147.752C29.44 147.88 29.76 148.008 30.272 148.136C31.36 148.328 32.192 148.52 32.768 148.712C33.344 148.904 33.824 149.224 34.208 149.672L34.496 149.96L34.112 150.344C33.984 150.472 33.792 150.6 33.536 150.728C33.344 150.792 33.184 150.92 33.056 151.112C32.416 151.624 31.488 152.36 30.272 153.32C29.12 154.28 28.224 155.08 27.584 155.72L24.704 158.6C22.272 161.096 20.416 163.112 19.136 164.648C17.664 166.184 16.768 167.24 16.448 167.816C16.256 167.944 15.36 169.032 13.76 171.08C13.184 171.72 12.896 172.008 12.896 171.944C12.896 171.688 13.056 171.24 13.376 170.6L13.952 169.256C13.952 169.192 13.984 169.096 14.048 168.968C14.112 168.84 14.208 168.68 14.336 168.488C14.656 168.168 15.008 167.528 15.392 166.568L16.16 164.84C16.224 164.776 16.288 164.68 16.352 164.552C16.48 164.36 16.576 164.168 16.64 163.976C17.28 162.76 17.888 161.832 18.464 161.192C18.592 161.128 19.008 160.648 19.712 159.752L20.768 158.12C21.216 157.8 21.44 157.512 21.44 157.256C21.44 157.064 21.536 156.936 21.728 156.872C21.92 156.744 22.016 156.552 22.016 156.296L22.208 155.816C22.4 155.688 22.496 155.496 22.496 155.24L22.688 154.856L22.976 154.088C23.04 153.96 23.168 153.768 23.36 153.512C23.616 153.256 23.872 152.968 24.128 152.648C24.384 152.328 24.576 152.104 24.704 151.976C24.896 151.848 25.12 151.784 25.376 151.784L26.048 151.88C26.112 152.072 26.304 152.168 26.624 152.168C27.008 152.104 27.392 151.976 27.776 151.784C28.16 151.336 28.352 151.08 28.352 151.016C28.352 150.952 28.288 150.856 28.16 150.728C27.968 150.408 27.872 150.088 27.872 149.768C27.872 149.384 27.84 149.128 27.776 149C27.712 148.808 27.52 148.584 27.2 148.328C27.008 148.136 26.72 147.976 26.336 147.848C26.016 147.656 25.792 147.528 25.664 147.464C24.768 147.08 24.16 146.76 23.84 146.504C23.328 146.184 22.912 145.928 22.592 145.736C22.4 145.672 22.176 145.48 21.92 145.16C21.792 145.032 21.664 144.968 21.536 144.968C21.472 144.904 21.344 144.904 21.152 144.968C20.64 145.416 20.384 145.704 20.384 145.832C20.384 145.96 20.288 146.056 20.096 146.12C19.968 146.184 19.712 146.216 19.328 146.216C19.008 146.216 18.784 146.312 18.656 146.504C18.592 146.632 18.656 146.76 18.848 146.888C19.04 147.336 19.136 147.624 19.136 147.752C19.136 148.008 19.008 148.264 18.752 148.52C18.496 148.776 18.016 149.192 17.312 149.768C17.184 149.832 16.096 150.728 14.048 152.456L12.416 153.992C10.688 155.72 9.344 156.904 8.384 157.544C7.424 158.184 6.464 158.632 5.504 158.888C5.056 159.016 4.768 159.016 4.64 158.888C4.576 158.824 4.544 158.696 4.544 158.504C4.608 158.504 4.608 158.504 4.544 158.504C4.544 158.44 4.512 158.44 4.448 158.504C4.32 158.632 4.032 158.696 3.584 158.696C3.008 158.696 2.72 158.792 2.72 158.984C2.72 159.048 2.784 159.144 2.912 159.272C3.104 159.72 3.04 159.944 2.72 159.944C2.528 159.944 2.304 160.072 2.048 160.328C1.792 160.52 1.696 160.68 1.76 160.808C1.76 160.872 1.664 161 1.472 161.192C1.152 161.512 0.992 161.768 0.992 161.96C0.992 162.152 1.088 162.376 1.28 162.632C1.472 162.824 1.664 162.984 1.856 163.112C1.92 163.112 2.112 163.4 2.432 163.976C2.688 164.424 2.944 164.808 3.2 165.128C3.52 165.448 3.84 165.608 4.16 165.608C4.48 165.608 4.8 165.544 5.12 165.416C5.44 165.288 5.6 165.16 5.6 165.032C5.728 164.392 5.92 163.88 6.176 163.496C6.496 163.112 7.264 162.44 8.48 161.48C9.76 160.456 10.496 159.72 10.688 159.272L11.936 158.12C12.832 157.416 13.28 156.936 13.28 156.68C13.28 156.488 13.696 156.008 14.528 155.24C15.36 154.344 15.744 153.896 15.68 153.896L16.064 153.032C16.32 152.712 16.672 152.296 17.12 151.784C17.632 151.272 17.92 151.048 17.984 151.112C17.856 151.56 17.664 151.976 17.408 152.36L16.832 153.704L16.16 154.952C16.096 155.4 15.808 156.104 15.296 157.064C14.464 159.176 13.92 160.648 13.664 161.48C13.28 162.696 12.832 164.136 12.32 165.8C11.808 167.4 11.392 168.424 11.072 168.872C11.008 169.128 10.912 169.416 10.784 169.736C10.656 170.056 10.56 170.344 10.496 170.6C10.24 171.432 10.08 171.816 10.016 171.752C9.888 171.688 9.824 171.784 9.824 172.04C9.824 172.296 9.76 172.424 9.632 172.424C9.568 172.424 9.248 172.68 8.672 173.192C8.16 173.768 7.872 174.056 7.808 174.056L7.52 174.248C7.392 174.376 7.008 174.504 6.368 174.632C6.368 174.632 6.4 174.728 6.464 174.92C6.656 175.048 6.816 175.368 6.944 175.88C7.008 176.2 7.04 176.424 7.04 176.552C7.04 176.616 6.976 176.68 6.848 176.744C6.208 176.936 5.888 177.352 5.888 177.992C5.888 178.184 6.016 178.344 6.272 178.472C6.4 178.536 6.624 178.568 6.944 178.568C7.2 178.568 7.52 178.728 7.904 179.048C8.288 179.304 8.544 179.624 8.672 180.008C8.864 180.328 9.28 180.84 9.92 181.544C10.624 182.184 11.136 182.568 11.456 182.696C11.776 182.696 11.936 182.76 11.936 182.888L12.128 183.368C12.192 183.56 12.288 183.688 12.416 183.752C12.608 183.752 12.896 183.72 13.28 183.656L14.144 183.464L14.336 182.984L14.432 182.12C14.368 181.992 14.88 180.776 15.968 178.472L16.832 176.36C16.832 176.296 17.376 175.176 18.464 173C18.656 172.744 18.816 172.424 18.944 172.04C19.072 171.592 19.136 171.24 19.136 170.984C19.136 170.792 19.232 170.568 19.424 170.312C19.872 169.352 20.128 168.84 20.192 168.776L20.48 167.912C21.44 166.056 22.24 164.744 22.88 163.976L23.456 163.208C23.456 163.08 23.84 162.568 24.608 161.672C25.44 160.712 26.272 159.784 27.104 158.888C27.488 158.696 27.68 158.44 27.68 158.12L27.872 157.736C28 157.352 28.576 156.648 29.6 155.624C30.688 154.536 31.68 153.608 32.576 152.84C33.6 152.008 34.176 151.368 34.304 150.92C34.624 150.6 34.784 150.44 34.784 150.44C35.04 150.696 35.2 151.08 35.264 151.592C35.392 151.912 35.52 152.264 35.648 152.648C35.776 152.968 35.904 153.32 36.032 153.704C36.288 154.472 36.576 155.08 36.896 155.528C38.24 157.064 38.912 157.896 38.912 158.024L37.664 158.696C37.152 158.888 36.704 159.112 36.32 159.368C35.936 159.624 35.584 159.816 35.264 159.944C34.496 160.328 34.048 160.52 33.92 160.52L32.288 160.904C31.456 161.16 30.72 161.288 30.08 161.288C29.312 161.288 28.768 161.416 28.448 161.672C27.936 161.992 27.872 162.152 28.256 162.152L29.12 162.248C29.568 162.376 29.792 162.472 29.792 162.536C29.664 162.664 29.536 162.664 29.408 162.536C29.216 162.536 29.12 162.6 29.12 162.728C29.312 162.856 29.664 162.92 30.176 162.92C30.432 162.92 30.976 163.016 31.808 163.208C32.384 163.272 33.088 163.208 33.92 163.016C34.496 162.888 35.072 162.728 35.648 162.536C36.288 162.28 37.12 161.928 38.144 161.48C39.36 160.904 40.032 160.616 40.16 160.616C40.224 160.616 40.32 160.68 40.448 160.808C40.512 160.872 40.256 161.448 39.68 162.536C39.104 163.624 38.464 164.776 37.76 165.992C37.568 166.312 37.344 166.664 37.088 167.048C36.896 167.368 36.768 167.624 36.704 167.816L36.32 168.392C36 168.904 35.776 169.32 35.648 169.64C35.328 170.216 34.912 170.792 34.4 171.368L33.536 173C33.344 173.576 33.088 174.024 32.768 174.344C32.448 174.664 32.224 174.984 32.096 175.304C31.776 175.688 31.392 176.168 30.944 176.744C30.496 177.384 30.112 177.992 29.792 178.568C29.216 179.528 28.8 180.136 28.544 180.392C28.48 180.456 28.384 180.584 28.256 180.776C28.192 180.904 28.032 181.096 27.776 181.352L26.912 182.6C26.656 182.856 26.432 183.208 26.24 183.656C25.984 183.912 25.536 184.424 24.896 185.192L24.032 186.536L23.072 187.688C22.624 188.136 22.4 188.392 22.4 188.456L22.112 188.936C21.728 189.32 21.312 189.832 20.864 190.472L19.808 192.104C19.68 192.232 19.488 192.456 19.232 192.776C18.976 193.096 18.752 193.416 18.56 193.736C17.728 194.952 17.376 195.56 17.504 195.56C17.632 195.56 17.824 195.4 18.08 195.08C18.272 194.824 18.496 194.6 18.752 194.408C18.816 194.408 18.88 194.376 18.944 194.312C19.072 194.248 19.2 194.152 19.328 194.024L19.808 193.448C19.936 193.448 20.128 193.256 20.384 192.872C20.384 192.872 20.64 192.616 21.152 192.104C21.536 191.976 21.888 191.656 22.208 191.144C22.528 190.696 22.912 190.28 23.36 189.896C23.872 189.512 24.224 189.32 24.416 189.32C24.864 189.32 26.528 187.624 29.408 184.232C31.136 182.248 32.352 181.096 33.056 180.776C33.44 180.648 33.664 180.488 33.728 180.296C33.792 180.168 33.92 180.104 34.112 180.104C34.176 180.104 34.464 179.816 34.976 179.24C35.488 178.792 35.776 178.568 35.84 178.568C35.84 178.568 36 178.408 36.32 178.088C36.704 177.192 38.944 174.696 43.04 170.6L45.344 168.2C45.792 167.624 46.144 167.336 46.4 167.336C46.464 167.336 46.624 167.176 46.88 166.856C47.2 166.536 47.488 166.248 47.744 165.992C48 165.352 47.84 164.712 47.264 164.072C46.944 163.88 46.784 163.624 46.784 163.304V163.112C46.848 162.856 46.784 162.504 46.592 162.056C46.4 161.544 46.176 161.16 45.92 160.904C45.664 160.712 45.504 160.552 45.44 160.424C45.376 160.296 45.44 160.232 45.632 160.232C45.824 160.232 46.048 160.136 46.304 159.944C46.496 159.88 46.752 159.752 47.072 159.56C47.456 159.304 47.904 159.08 48.416 158.888L50.528 157.832C50.784 157.64 51.328 157.544 52.16 157.544C52.928 157.544 53.504 157.672 53.888 157.928C54.208 158.248 54.464 158.664 54.656 159.176C54.912 159.688 55.04 160.168 55.04 160.616C54.976 160.808 54.944 161.032 54.944 161.288C55.008 161.48 55.072 161.608 55.136 161.672C55.136 161.736 55.2 161.96 55.328 162.344L55.424 162.728L54.272 162.824C54.016 162.888 53.728 162.92 53.408 162.92C53.088 162.92 52.832 162.952 52.64 163.016C52.448 163.144 52.32 163.304 52.256 163.496C52.256 163.688 52.32 163.848 52.448 163.976C52.64 164.04 52.704 164.264 52.64 164.648C52.64 164.968 52.544 165.416 52.352 165.992L51.104 168.392C50.784 168.84 50.592 169.064 50.528 169.064C50.464 169.064 50.432 169.032 50.432 168.968C50.432 168.712 50.368 168.52 50.24 168.392C50.112 168.264 50.048 168.168 50.048 168.104C50.112 167.976 50.208 167.912 50.336 167.912C50.528 167.912 50.624 167.848 50.624 167.72C50.688 167.592 50.432 167.4 49.856 167.144C49.28 166.824 48.832 166.664 48.512 166.664C48.384 166.664 48.32 166.76 48.32 166.952C48.192 167.08 47.968 167.144 47.648 167.144L46.976 167.24C46.912 167.304 46.944 167.464 47.072 167.72C47.2 167.976 47.36 168.136 47.552 168.2C47.68 168.2 47.968 168.424 48.416 168.872C48.8 169.32 49.216 169.576 49.664 169.64L50.336 169.736L49.376 171.368C47.456 174.632 46.4 177.192 46.208 179.048L46.112 180.104L46.304 181.736L46.4 183.368C46.272 183.56 46.4 184.264 46.784 185.48C46.848 185.736 46.88 185.896 46.88 185.96C46.88 186.088 46.816 186.152 46.688 186.152C46.56 186.216 46.688 186.472 47.072 186.92C47.52 187.432 48.352 188.36 49.568 189.704C51.744 191.944 53.664 193.48 55.328 194.312C56.224 194.696 57.216 195.112 58.304 195.56C59.392 196.008 60.288 196.328 60.992 196.52L63.104 197.096C65.152 197.8 67.232 198.248 69.344 198.44C69.792 198.504 70.592 198.536 71.744 198.536C74.24 198.536 76.16 198.376 77.504 198.056L78.848 197.768C79.36 197.576 79.712 197.416 79.904 197.288C80.544 197.032 81.056 196.904 81.44 196.904C81.824 196.904 82.016 196.776 82.016 196.52C82.144 196.328 82.272 196.232 82.4 196.232C82.72 196.232 82.976 196.168 83.168 196.04C83.616 195.912 83.968 195.88 84.224 195.944C84.416 196.008 84.576 196.008 84.704 195.944C84.896 195.88 85.056 195.72 85.184 195.464C85.44 195.208 85.696 195.08 85.952 195.08C86.144 195.08 86.272 194.984 86.336 194.792C86.4 194.664 86.56 194.472 86.816 194.216C86.944 194.088 87.008 193.928 87.008 193.736C87.072 193.608 87.072 193.448 87.008 193.256C86.88 193.064 86.848 192.872 86.912 192.68C86.976 192.552 87.136 192.36 87.392 192.104C87.712 191.592 87.872 191.272 87.872 191.144L87.68 190.856C87.68 190.664 87.52 190.504 87.2 190.376C86.944 190.376 86.752 190.28 86.624 190.088C86.496 189.896 86.4 189.768 86.336 189.704C86.208 189.448 86.048 189.224 85.856 189.032C85.728 188.904 85.632 188.808 85.568 188.744C85.312 188.68 85.184 188.488 85.184 188.168C85.12 187.848 84.992 187.4 84.8 186.824C84.672 186.312 84.48 185.8 84.224 185.288C83.968 184.904 83.84 184.552 83.84 184.232C83.84 184.168 83.776 184.104 83.648 184.04C83.584 183.912 83.52 183.848 83.456 183.848C83.136 183.464 82.976 183.272 82.976 183.272C82.848 183.144 82.784 182.728 82.784 182.024L82.88 180.488C82.88 180.296 82.816 179.912 82.688 179.336C82.624 179.144 82.528 179.016 82.4 178.952C82.336 178.888 82.208 178.888 82.016 178.952C81.76 179.016 81.6 178.952 81.536 178.76L81.248 178.184C81.184 178.12 81.152 177.608 81.152 176.648C81.152 175.56 81.184 174.504 81.248 173.48C81.312 172.392 81.376 171.528 81.44 170.888C81.504 170.568 81.536 169.992 81.536 169.16L81.44 168.392L81.536 167.816C81.6 167.112 81.664 166.184 81.728 165.032C81.792 163.88 81.76 162.984 81.632 162.344V161.96C81.632 161.96 81.664 161.8 81.728 161.48C81.792 161.16 81.76 160.84 81.632 160.52C81.632 159.688 81.728 159.016 81.92 158.504C82.048 158.056 82.048 157.8 81.92 157.736C81.856 157.736 81.824 157.704 81.824 157.64C81.824 157.512 81.856 157.448 81.92 157.448C82.048 157.448 82.176 157.192 82.304 156.68C82.368 156.424 82.496 156.104 82.688 155.72C82.816 155.208 82.72 155.144 82.4 155.528C81.824 155.912 81.632 155.656 81.824 154.76C81.888 154.248 81.824 153.992 81.632 153.992V154.184C81.632 154.312 81.344 154.856 80.768 155.816C80.704 156.008 80.576 156.296 80.384 156.68C80.192 157.064 80.096 157.352 80.096 157.544C80.096 157.8 80 157.928 79.808 157.928C79.68 157.928 79.552 158.12 79.424 158.504C79.296 158.696 79.2 158.856 79.136 158.984C79.136 159.048 79.2 159.016 79.328 158.888C79.392 158.888 79.424 158.888 79.424 158.888L79.136 159.272C79.008 159.528 78.88 159.784 78.752 160.04C78.624 160.232 78.56 160.456 78.56 160.712V160.808C78.624 160.872 78.528 161.256 78.272 161.96L77.6 163.208C77.472 163.656 77.376 163.912 77.312 163.976C76.928 164.808 76.736 165.416 76.736 165.8C76.736 165.928 76.672 166.12 76.544 166.376C76.416 166.504 76.256 166.76 76.064 167.144C76.064 167.464 75.904 167.752 75.584 168.008L75.296 168.584C75.296 168.776 75.2 168.968 75.008 169.16L72.8 173.192L70.304 178.28C69.728 179.24 69.056 180.296 68.288 181.448C67.584 182.536 66.976 183.4 66.464 184.04C66.08 184.36 65.344 184.648 64.256 184.904C62.848 185.224 61.76 185.416 60.992 185.48C60.288 185.608 59.2 185.672 57.728 185.672C56.064 185.544 54.848 185.416 54.08 185.288C53.376 185.224 52.48 185 51.392 184.616C51.072 184.488 50.848 184.392 50.72 184.328C50.592 184.2 50.464 183.976 50.336 183.656L50.048 182.696L49.856 182.6C49.536 182.6 49.344 182.344 49.28 181.832C49.216 181.256 49.184 180.36 49.184 179.144C49.184 178.632 49.248 178.184 49.376 177.8C49.504 177.416 49.696 176.968 49.952 176.456C50.272 175.944 50.656 175.368 51.104 174.728C51.616 174.024 52.032 173.448 52.352 173L52.832 172.232C52.96 172.104 53.12 171.912 53.312 171.656C53.504 171.4 53.728 171.176 53.984 170.984L54.848 170.024C55.552 168.872 56.224 167.56 56.864 166.088C57.12 165.832 57.248 165.704 57.248 165.704C57.504 165.704 57.76 165.768 58.016 165.896C58.272 166.024 58.432 166.12 58.496 166.184C58.56 166.248 58.816 166.344 59.264 166.472C59.776 166.472 60.288 166.312 60.8 165.992L62.048 165.032C62.176 164.968 62.464 164.712 62.912 164.264C63.104 164.072 63.232 163.912 63.296 163.784C63.424 163.592 63.552 163.432 63.68 163.304C63.808 163.24 64 163.016 64.256 162.632C64.512 162.248 64.736 162.024 64.928 161.96C65.312 161.512 65.568 161.16 65.696 160.904C65.76 160.84 65.824 160.744 65.888 160.616C66.016 160.488 66.112 160.392 66.176 160.328C66.368 160.136 66.464 160.008 66.464 159.944C66.528 159.688 66.624 159.464 66.752 159.272C67.072 158.824 67.232 158.568 67.232 158.504C67.232 158.312 67.424 157.768 67.808 156.872C68.32 155.912 68.608 155.08 68.672 154.376C68.928 153.352 69.088 152.84 69.152 152.84C69.152 152.776 69.248 152.488 69.44 151.976C69.632 151.464 69.76 150.952 69.824 150.44C70.144 148.904 70.4 148.04 70.592 147.848C70.592 147.784 70.592 147.592 70.592 147.272C70.656 146.888 70.688 146.312 70.688 145.544C70.688 144.392 70.752 142.92 70.88 141.128L71.072 138.92C71.072 138.792 71.008 138.408 70.88 137.768C70.688 137.128 70.4 136.456 70.016 135.752C69.696 134.984 69.408 134.376 69.152 133.928L68.864 132.872C68.736 131.976 68.288 131.528 67.52 131.528C67.136 131.528 66.848 131.432 66.656 131.24C66.336 130.856 65.92 130.664 65.408 130.664C65.152 130.664 64.992 130.696 64.928 130.76ZM49.664 155.912C49.728 155.976 49.696 156.04 49.568 156.104C49.44 156.104 49.344 156.104 49.28 156.104C49.024 156.104 48.896 156.04 48.896 155.912H49.28H49.664ZM48.896 156.584C48.896 156.584 48.64 156.776 48.128 157.16L46.496 158.6L45.152 159.848L44.672 160.136L44.384 159.752C44.064 159.368 43.904 159.112 43.904 158.984C43.904 158.792 44.192 158.568 44.768 158.312L46.88 157.064C47.712 156.616 48.256 156.392 48.512 156.392C48.64 156.392 48.736 156.424 48.8 156.488C48.928 156.488 48.96 156.52 48.896 156.584Z" fill="white"/>
</svg>