<svg width="86" height="191" viewBox="0 0 86 191" fill="none" xmlns="http://www.w3.org/2000/svg">
<path d="M33.032 0.743998C32.968 2.216 33 3.112 33.128 3.432C33.192 3.496 33.288 3.656 33.416 3.912C33.544 4.104 33.64 4.264 33.704 4.392C34.024 5.032 34.248 5.352 34.376 5.352C34.504 5.48 34.568 5.672 34.568 5.928C34.568 6.312 34.376 7.304 33.992 8.904C33.608 10.44 33.256 11.688 32.936 12.648C31.336 17.128 30.28 20.456 29.768 22.632C29.384 24.104 29 25.512 28.616 26.856C28.232 28.2 27.944 29.192 27.752 29.832C27.624 30.152 27.528 30.312 27.464 30.312C26.376 30.696 25 31.208 23.336 31.848C21.672 32.424 20.392 32.872 19.496 33.192L16.52 34.44C14.536 35.272 13.096 35.976 12.2 36.552C12.072 36.68 11.528 36.744 10.568 36.744C9.544 36.744 8.808 36.712 8.36 36.648L7.112 36.552C6.984 36.616 7.112 36.744 7.496 36.936C7.944 37.064 8.392 37.192 8.84 37.32C10.184 37.576 12.328 37.704 15.272 37.704C19.688 37.704 22.312 37.576 23.144 37.32L24.2 37.128C24.328 37.128 24.392 37.192 24.392 37.32V37.512C24.072 38.152 23.56 39.176 22.856 40.584C22.216 41.928 21.544 43.304 20.84 44.712C20.456 45.416 20.264 45.864 20.264 46.056C20.392 46.504 20.04 47.272 19.208 48.36C18.824 48.872 18.6 49.256 18.536 49.512L18.152 50.088L17.96 50.472C17.96 50.664 17.8 50.856 17.48 51.048C17.224 51.304 17.096 51.496 17.096 51.624C17.096 51.88 16.456 52.84 15.176 54.504C14.088 56.168 13.544 57 13.544 57C10.536 61.672 8.584 64.296 7.688 64.872C7.304 65.128 7.176 65.32 7.304 65.448C7.496 65.448 7.624 65.416 7.688 65.352C7.816 65.224 8.008 65.16 8.264 65.16C8.328 65.224 8.584 65.064 9.032 64.68C9.544 64.36 9.832 64.2 9.896 64.2C10.152 64.2 10.44 63.944 10.76 63.432C11.4 63.048 11.784 62.728 11.912 62.472C12.36 62.28 12.744 61.896 13.064 61.32C14.088 60.36 14.6 59.88 14.6 59.88L15.272 58.824L15.944 57.96C16.712 57 17.096 56.456 17.096 56.328C17.096 56.2 17.224 56.008 17.48 55.752C17.928 55.304 18.184 55.016 18.248 54.888C18.376 54.76 18.472 54.696 18.536 54.696C18.664 54.632 18.792 54.632 18.92 54.696C19.048 54.76 19.208 54.664 19.4 54.408L19.784 53.832C19.784 53.704 19.88 53.64 20.072 53.64C20.072 53.64 20.264 53.352 20.648 52.776C21.16 52.072 21.448 51.72 21.512 51.72C21.64 51.656 21.96 51.304 22.472 50.664C22.92 50.152 23.208 49.896 23.336 49.896L23.72 50.472L24.776 51.72C25.288 52.104 25.544 52.392 25.544 52.584C25.544 52.648 25.352 52.936 24.968 53.448L24.008 54.888C23.88 55.144 23.72 55.4 23.528 55.656C23.4 55.848 23.272 56.072 23.144 56.328L22.568 57L22.28 57.672L21.704 58.056C21.704 58.184 21.48 58.536 21.032 59.112C20.84 59.176 20.712 59.304 20.648 59.496C20.648 59.56 20.424 59.816 19.976 60.264C19.4 60.648 19.112 60.936 19.112 61.128C19.112 61.32 19.496 61.32 20.264 61.128C21.096 60.872 21.64 60.552 21.896 60.168C22.344 59.976 22.6 59.88 22.664 59.88C22.856 59.88 23.208 59.752 23.72 59.496C24.232 59.176 24.52 58.888 24.584 58.632C24.904 58.248 25.224 58.056 25.544 58.056C25.864 57.864 26.024 57.768 26.024 57.768C26.024 57.64 26.088 57.576 26.216 57.576C26.472 57.64 26.6 57.608 26.6 57.48L26.888 57.384C27.016 57.384 27.08 57.48 27.08 57.672C27.08 57.864 27.016 57.992 26.888 58.056C26.76 58.056 26.696 58.12 26.696 58.248C26.696 58.376 26.76 58.44 26.888 58.44C27.016 58.44 27.112 58.312 27.176 58.056L27.656 57.96L28.52 57.768C28.712 57.704 28.904 57.736 29.096 57.864C29.288 57.992 29.576 58.248 29.96 58.632C30.088 58.888 30.344 59.112 30.728 59.304L31.784 60.648C31.784 60.648 32.04 60.904 32.552 61.416C32.616 61.416 32.808 61.576 33.128 61.896L34.184 62.184C34.504 62.184 34.76 62.152 34.952 62.088C35.144 62.024 35.336 61.832 35.528 61.512C35.976 61.128 36.232 60.936 36.296 60.936C36.552 60.936 36.68 60.68 36.68 60.168C36.616 59.912 36.68 59.688 36.872 59.496C37.064 59.368 37.096 59.144 36.968 58.824C36.904 58.44 36.776 58.184 36.584 58.056C36.52 58.056 36.264 57.736 35.816 57.096C35.432 56.456 35.176 56.008 35.048 55.752C35.048 55.56 34.6 55.048 33.704 54.216C33.384 54.024 32.808 53.64 31.976 53.064C31.208 52.488 30.664 52.008 30.344 51.624C30.216 51.496 30.056 51.336 29.864 51.144C29.672 50.888 29.416 50.696 29.096 50.568C28.904 50.44 28.584 50.056 28.136 49.416C27.752 48.712 27.272 48.36 26.696 48.36C26.312 48.36 26.024 48.392 25.832 48.456C25.256 48.52 24.904 48.488 24.776 48.36C24.712 48.296 24.68 48.2 24.68 48.072C24.68 47.944 24.744 47.752 24.872 47.496C25.256 46.92 25.832 46.088 26.6 45L27.272 44.04L27.848 43.176C28.04 43.048 28.296 42.76 28.616 42.312C28.744 41.736 28.936 41.384 29.192 41.256C29.448 41 29.576 40.84 29.576 40.776L29.672 40.488C29.736 40.488 29.832 40.328 29.96 40.008L31.016 38.76C31.528 38.312 32.04 37.64 32.552 36.744C32.872 36.36 33.128 36.072 33.32 35.88C33.512 35.624 33.8 35.464 34.184 35.4C34.504 35.272 35.016 35.208 35.72 35.208C36.68 35.208 37.448 35.368 38.024 35.688C39.112 36.136 40.104 36.808 41 37.704C41.832 38.728 42.568 40.552 43.208 43.176C43.464 44.648 43.944 46.312 44.648 48.168C45.352 49.704 46.44 51.592 47.912 53.832C49.448 56.008 50.888 57.832 52.232 59.304C53.448 60.648 54.28 61.64 54.728 62.28C55.24 62.856 55.464 63.208 55.4 63.336L52.424 64.68C52.232 64.68 51.976 64.84 51.656 65.16C51.592 65.224 51.432 65.288 51.176 65.352C50.984 65.416 50.76 65.512 50.504 65.64L48.104 66.792C47.08 67.304 46.44 67.56 46.184 67.56C46.12 67.56 45.992 67.592 45.8 67.656C45.608 67.72 45.448 67.816 45.32 67.944L44.264 68.616C43.88 68.616 43.592 68.712 43.4 68.904L42.44 69.576C42.12 69.64 41.416 69.96 40.328 70.536C38.472 71.56 36.424 72.616 34.184 73.704C33.736 73.832 33.32 73.992 32.936 74.184C32.552 74.44 32.232 74.6 31.976 74.664L31.208 74.952H32.072C32.776 74.952 34.12 74.728 36.104 74.28C36.168 74.28 36.296 74.216 36.488 74.088C36.68 74.024 36.808 73.96 36.872 73.896C37.064 73.896 37.224 73.864 37.352 73.8C37.48 73.736 37.672 73.704 37.928 73.704C38.568 73.512 38.952 73.32 39.08 73.128C39.336 72.936 39.752 72.84 40.328 72.84C40.776 72.84 41.192 72.744 41.576 72.552C42.28 72.168 42.952 71.976 43.592 71.976C44.04 71.976 44.552 71.912 45.128 71.784C45.704 71.656 46.12 71.528 46.376 71.4L46.568 71.112C46.696 71.24 46.952 71.208 47.336 71.016C47.784 70.888 48.104 70.792 48.296 70.728C48.296 70.728 48.392 70.696 48.584 70.632C48.776 70.632 48.968 70.664 49.16 70.728C49.928 70.728 50.312 71.016 50.312 71.592C50.312 71.912 50.696 71.976 51.464 71.784C52.616 71.272 53.448 71.016 53.96 71.016L54.536 70.824C55.112 70.568 55.784 70.44 56.552 70.44L56.84 70.536C57.096 70.6 57.512 70.568 58.088 70.44C58.728 70.376 59.112 70.312 59.24 70.248C59.304 70.12 59.432 70.088 59.624 70.152C59.88 70.28 59.976 70.408 59.912 70.536C59.848 70.6 59.912 70.632 60.104 70.632C60.36 70.696 60.744 70.728 61.256 70.728C61.768 70.728 62.12 70.728 62.312 70.728C62.504 70.792 62.728 70.92 62.984 71.112C63.368 71.56 63.624 71.784 63.752 71.784C64.712 72.424 65.672 73.256 66.632 74.28C67.912 75.56 68.872 76.424 69.512 76.872C69.768 77 69.928 77.128 69.992 77.256C70.12 77.384 70.408 77.544 70.856 77.736C71.24 77.928 71.432 78.056 71.432 78.12C71.496 78.12 71.528 78.152 71.528 78.216C71.592 78.28 71.656 78.312 71.72 78.312L72.584 78.792C72.904 79.048 73.16 79.176 73.352 79.176C73.672 79.176 73.928 79.336 74.12 79.656C74.376 79.976 74.568 80.104 74.696 80.04C74.888 79.976 74.888 79.784 74.696 79.464L74.408 79.08L74.888 79.176L75.848 79.272L76.424 79.368C76.552 79.368 76.68 79.464 76.808 79.656C76.872 79.912 76.968 80.04 77.096 80.04C77.224 80.104 77.384 80.136 77.576 80.136C77.96 80.136 78.28 80.2 78.536 80.328C78.664 80.584 78.888 80.712 79.208 80.712C79.464 80.712 79.656 80.744 79.784 80.808C79.976 80.936 80.104 80.968 80.168 80.904C80.296 80.84 80.296 80.744 80.168 80.616C80.168 80.552 80.072 80.456 79.88 80.328C79.688 80.264 79.496 80.2 79.304 80.136C78.92 79.88 78.632 79.752 78.44 79.752H78.248C77.864 79.752 77.672 79.688 77.672 79.56C77.672 79.432 77.768 79.368 77.96 79.368C78.216 79.368 78.472 79.4 78.728 79.464L79.496 79.752C79.944 79.752 80.232 79.848 80.36 80.04C80.616 80.168 80.744 80.168 80.744 80.04C80.808 79.976 80.712 79.784 80.456 79.464L80.072 79.176L80.456 79.08C80.712 79.016 81.064 78.984 81.512 78.984C82.088 78.984 82.408 79.08 82.472 79.272C82.728 79.464 82.856 79.688 82.856 79.944C82.856 80.2 82.728 80.744 82.472 81.576C82.344 81.704 82.216 81.864 82.088 82.056C82.024 82.312 81.992 82.536 81.992 82.728C81.992 82.856 82.056 82.92 82.184 82.92C82.376 82.92 82.536 82.856 82.664 82.728C82.856 82.6 82.984 82.472 83.048 82.344L83.528 82.248C83.592 82.12 83.624 81.832 83.624 81.384C83.624 80.872 83.688 80.552 83.816 80.424C83.944 80.296 84.232 80.232 84.68 80.232C85 80.232 85.16 80.168 85.16 80.04C85.16 79.784 85.096 79.496 84.968 79.176C84.84 78.92 84.712 78.728 84.584 78.6C84.456 78.6 84.072 78.408 83.432 78.024C82.792 77.64 82.248 77.288 81.8 76.968L80.456 76.008C79.816 75.624 79.432 75.336 79.304 75.144C79.048 74.888 78.824 74.76 78.632 74.76C78.568 74.76 78.472 74.6 78.344 74.28L78.248 73.896C78.376 73.896 78.44 73.928 78.44 73.992L79.112 74.184C79.432 74.184 79.624 74.12 79.688 73.992C79.88 73.864 79.912 73.736 79.784 73.608C79.72 73.48 79.56 73.288 79.304 73.032C79.048 72.904 78.824 72.776 78.632 72.648C78.504 72.52 78.44 72.424 78.44 72.36C78.312 71.976 78.12 71.688 77.864 71.496C77.416 70.984 77.096 70.728 76.904 70.728C76.648 70.728 76.52 70.664 76.52 70.536C76.52 70.536 76.392 70.376 76.136 70.056C75.752 70.056 75.336 69.832 74.888 69.384C74.632 69.128 74.216 68.808 73.64 68.424C73 68.04 72.296 67.592 71.528 67.08C70.824 66.568 70.344 66.216 70.088 66.024C69.832 65.704 69.64 65.512 69.512 65.448C69.192 65.448 69.032 65.352 69.032 65.16C69.032 65.032 68.936 64.968 68.744 64.968C68.616 64.968 68.392 64.808 68.072 64.488C67.816 64.232 67.624 64.072 67.496 64.008L67.304 63.528C67.304 63.464 67.24 63.368 67.112 63.24C66.984 63.24 66.888 63.208 66.824 63.144C66.824 63.08 66.856 63.016 66.92 62.952C67.048 62.824 66.984 62.696 66.728 62.568C66.536 62.44 66.344 62.408 66.152 62.472C65.896 62.536 65.704 62.504 65.576 62.376C65.384 62.312 65.416 62.12 65.672 61.8C65.928 61.416 66.056 60.872 66.056 60.168C66.056 59.528 65.96 59.016 65.768 58.632C65.64 58.248 65.512 58.056 65.384 58.056C64.936 57.672 64.68 57.384 64.616 57.192C64.36 56.808 64.168 56.616 64.04 56.616C63.976 56.616 63.944 56.776 63.944 57.096C64.008 57.352 64.104 57.576 64.232 57.768C64.36 57.896 64.36 58.056 64.232 58.248C64.168 58.376 63.976 58.44 63.656 58.44C63.336 58.44 62.92 58.184 62.408 57.672C62.216 57.288 61.864 57.096 61.352 57.096C61.224 57.096 61.096 57.192 60.968 57.384C60.776 57.704 60.136 57.864 59.048 57.864L57.992 57.96L56.84 56.904C55.368 55.624 54.024 54.216 52.808 52.68L51.464 50.952C51.208 50.76 50.952 50.44 50.696 49.992C50.632 49.736 50.504 49.512 50.312 49.32C50.248 49.32 50.152 49.256 50.024 49.128C49.896 49 49.8 48.872 49.736 48.744L48.968 47.496C48.264 46.6 47.4 45.128 46.376 43.08L45.32 40.968L44.84 40.2C44.52 39.176 43.944 38.184 43.112 37.224C42.28 36.2 41.384 35.432 40.424 34.92C40.232 34.856 40.072 34.792 39.944 34.728C39.88 34.6 39.848 34.504 39.848 34.44C39.912 34.376 40.424 34.184 41.384 33.864C42.408 33.48 42.984 33.32 43.112 33.384C43.24 33.512 43.496 33.448 43.88 33.192L45.704 32.52L47.24 31.848C47.368 31.784 47.56 31.752 47.816 31.752C48.072 31.752 48.232 31.656 48.296 31.464C48.68 31.208 48.936 31.208 49.064 31.464C49.192 31.656 49.064 31.88 48.68 32.136C48.488 32.328 48.456 32.424 48.584 32.424L51.08 31.656C51.208 31.528 51.656 31.368 52.424 31.176C52.552 31.176 53.032 31.08 53.864 30.888C53.928 30.824 54.184 30.792 54.632 30.792C55.08 30.728 55.4 30.664 55.592 30.6C56.68 30.472 57.832 30.216 59.048 29.832C60.392 29.576 62.12 29.448 64.232 29.448H68.072L68.264 27.72L68.36 26.088L67.112 24.744C66.856 24.616 66.504 24.36 66.056 23.976C65.608 23.528 65.288 23.272 65.096 23.208C64.648 22.888 64.36 22.632 64.232 22.44C64.232 22.312 64.072 22.248 63.752 22.248C63.56 22.248 63.272 21.96 62.888 21.384C62.248 20.744 61.8 20.424 61.544 20.424C61.416 20.424 61.224 20.488 60.968 20.616C60.584 20.808 60.232 20.808 59.912 20.616C59.72 20.552 58.92 20.52 57.512 20.52H55.592C52.968 20.52 51.464 20.584 51.08 20.712C50.952 20.84 50.344 21.064 49.256 21.384C49.064 21.448 48.488 21.64 47.528 21.96C46.568 22.28 45.64 22.664 44.744 23.112L41.384 24.36C41.192 24.36 41.16 24.2 41.288 23.88C41.48 23.496 41.672 23.144 41.864 22.824L42.248 22.056C42.248 21.672 42.568 21.032 43.208 20.136L44.168 18.024C44.296 17.512 44.488 17 44.744 16.488C45.064 15.912 45.32 15.464 45.512 15.144L45.896 14.856C45.896 14.664 45.96 14.504 46.088 14.376C46.216 14.184 46.344 14.088 46.472 14.088C46.664 14.088 46.76 14.056 46.76 13.992C46.76 13.8 46.344 13 45.512 11.592C45.192 11.016 45.032 10.6 45.032 10.344V9.96C45.032 9.64 45.128 9.384 45.32 9.192C45.576 8.616 45.384 8.328 44.744 8.328C44.424 8.328 44.072 8.168 43.688 7.848C43.432 7.592 43.208 7.464 43.016 7.464C42.824 7.464 42.632 7.336 42.44 7.08C42.248 6.824 41.832 6.536 41.192 6.216C40.36 5.70399 39.24 4.99999 37.832 4.10399C37.704 3.976 37.416 3.784 36.968 3.528L36.104 2.856L34.76 1.8C34.312 1.48 34.024 1.192 33.896 0.935995C33.768 0.807997 33.576 0.711998 33.32 0.647999C33.128 0.583996 33.032 0.615995 33.032 0.743998ZM66.44 119.776C66.12 120.096 65.608 120.384 64.904 120.64C64.264 120.896 63.816 121.088 63.56 121.216C62.536 121.472 60.872 122.272 58.568 123.616C56.264 124.896 54.664 125.888 53.768 126.592L52.52 127.552L49.736 129.568C48.712 130.4 47.848 131.04 47.144 131.488C46.44 131.936 45.544 132.448 44.456 133.024C43.176 133.792 42.248 134.304 41.672 134.56C41.096 134.816 40.712 134.912 40.52 134.848C40.264 134.72 39.88 134.688 39.368 134.752C38.856 134.816 38.632 134.912 38.696 135.04C38.76 135.104 38.792 135.264 38.792 135.52C38.792 136.032 39.08 136.48 39.656 136.864C40.296 137.184 40.936 137.344 41.576 137.344C42.152 137.344 42.728 137.216 43.304 136.96C43.944 136.704 44.456 136.416 44.84 136.096C45.224 135.84 45.8 135.424 46.568 134.848C47.336 134.4 47.784 134.016 47.912 133.696L48.968 132.928C50.312 131.968 51.88 130.496 53.672 128.512C54.376 127.808 55.112 127.104 55.88 126.4C56.712 125.632 57.288 125.12 57.608 124.864L58.472 124.48C58.792 124.16 59.016 124 59.144 124C59.336 123.872 59.464 123.744 59.528 123.616C61.512 122.848 62.856 122.368 63.56 122.176C64.328 121.92 64.872 121.792 65.192 121.792L66.056 121.984C66.824 122.048 67.336 122.144 67.592 122.272C67.848 122.4 68.008 122.688 68.072 123.136C68.264 123.584 68.232 124.768 67.976 126.688C67.72 128.608 67.464 129.92 67.208 130.624L66.632 132.544C66.504 132.992 65.96 134.304 65 136.48L64.04 138.304L63.56 137.728C62.984 137.216 62.248 136.928 61.352 136.864C60.072 136.736 59.24 136.48 58.856 136.096L58.472 135.616L57.512 135.52C56.936 135.52 56.584 135.584 56.456 135.712C56.328 135.84 56.008 135.904 55.496 135.904C55.112 135.904 54.856 136 54.728 136.192C54.728 136.32 54.536 136.384 54.152 136.384C53.768 136.384 53.512 136.448 53.384 136.576C53.256 136.64 53.16 136.832 53.096 137.152C53.096 137.28 53 137.408 52.808 137.536C52.68 137.6 52.488 137.696 52.232 137.824C51.976 137.888 51.72 138.016 51.464 138.208C51.208 138.4 50.888 138.528 50.504 138.592L49.736 138.976L49.16 138.496C48.904 138.304 48.712 138.112 48.584 137.92C48.456 137.664 48.36 137.504 48.296 137.44C48.04 137.12 47.72 136.864 47.336 136.672C47.016 136.416 46.728 136.288 46.472 136.288C46.216 136.288 45.576 136.544 44.552 137.056L44.168 137.248C43.848 137.312 43.752 137.408 43.88 137.536C44.008 137.664 44.232 137.856 44.552 138.112C45 138.368 45.256 138.592 45.32 138.784C45.384 138.976 45.448 139.52 45.512 140.416C45.576 140.864 45.544 141.184 45.416 141.376C45.288 141.568 44.744 141.952 43.784 142.528C43.4 142.72 43.048 142.944 42.728 143.2C42.408 143.456 42.088 143.648 41.768 143.776C41.448 144.16 40.968 144.512 40.328 144.832L38.696 145.6C38.248 145.856 37.928 145.952 37.736 145.888C37.544 145.76 37.128 145.312 36.488 144.544C35.784 143.584 34.984 142.624 34.088 141.664C33.384 141.152 32.552 140.8 31.592 140.608C31.336 140.544 30.888 140.512 30.248 140.512C29.544 140.512 28.904 140.576 28.328 140.704C27.752 140.768 27.688 140.832 28.136 140.896C28.392 140.96 28.456 141.024 28.328 141.088C28.264 141.152 28.072 141.152 27.752 141.088C27.496 141.024 27.24 141.056 26.984 141.184C26.728 141.248 26.6 141.344 26.6 141.472C26.6 141.536 26.76 141.632 27.08 141.76C27.208 141.76 27.304 141.792 27.368 141.856C27.496 141.92 27.56 142.016 27.56 142.144L28.616 142.432C29.832 142.688 30.728 143.104 31.304 143.68C31.944 144.192 32.488 144.864 32.936 145.696C33.384 146.528 33.544 147.136 33.416 147.52C33.352 147.648 33.416 148 33.608 148.576C33.736 148.704 33.832 148.864 33.896 149.056C34.024 149.184 34.088 149.28 34.088 149.344C34.216 149.984 34.44 150.656 34.76 151.36C35.144 151.936 35.336 152.384 35.336 152.704C35.4 152.96 35.688 153.472 36.2 154.24L36.68 155.2L35.336 155.68L34.088 156.64L33.32 157.024C33.192 157.152 33.16 157.28 33.224 157.408L34.76 157.504C35.336 157.568 35.816 157.6 36.2 157.6C36.648 157.536 37.096 157.408 37.544 157.216C38.632 156.832 39.176 156.64 39.176 156.64C39.752 156.384 40.456 156.032 41.288 155.584C42.184 155.136 42.888 154.816 43.4 154.624L44.072 154.528L43.88 156.064C43.88 156.576 43.848 157.12 43.784 157.696C43.72 158.272 43.688 158.816 43.688 159.328C43.624 159.712 43.592 160.16 43.592 160.672C43.592 161.12 43.56 161.504 43.496 161.824C43.496 162.208 43.464 162.464 43.4 162.592C43.336 162.72 43.208 162.848 43.016 162.976C42.888 163.04 42.568 163.232 42.056 163.552L41.288 163.936L33.608 167.776C33.352 167.904 32.904 168.096 32.264 168.352C31.688 168.608 31.176 168.768 30.728 168.832C30.216 168.96 29.768 169.024 29.384 169.024H28.904L27.272 168.832H26.312C26.248 168.832 26.184 168.832 26.12 168.832C26.12 168.832 26.12 168.864 26.12 168.928C26.12 169.056 26.152 169.12 26.216 169.12C26.28 169.12 26.312 169.216 26.312 169.408C26.248 169.6 26.568 169.952 27.272 170.464L28.328 171.232H30.344C31.752 171.232 32.648 171.168 33.032 171.04L34.472 170.752C35.368 170.496 36.968 169.824 39.272 168.736L41.288 167.776L42.536 167.104C42.6 167.104 42.632 167.392 42.632 167.968C42.632 169.056 42.6 169.664 42.536 169.792C42.472 169.856 42.44 170.464 42.44 171.616C42.44 172.704 42.472 173.312 42.536 173.44C42.664 173.568 42.792 173.92 42.92 174.496C43.048 175.264 43.336 175.84 43.784 176.224C43.976 176.48 44.136 176.544 44.264 176.416C44.328 176.096 44.552 176.192 44.936 176.704L45.416 177.088L45.8 176.512C46.248 176.064 46.472 175.744 46.472 175.552C46.472 175.104 46.6 175.008 46.856 175.264C46.92 175.392 47.08 175.456 47.336 175.456C47.528 175.392 47.784 175.52 48.104 175.84C48.424 176.288 48.648 176.512 48.776 176.512C48.968 176.512 49.16 176.288 49.352 175.84C49.864 174.432 50.12 173.12 50.12 171.904L50.312 169.888C50.312 169.184 50.376 168.48 50.504 167.776C50.504 167.008 50.536 166.208 50.6 165.376C50.728 164.48 50.856 163.904 50.984 163.648C51.368 163.456 51.944 163.232 52.712 162.976C53.544 162.72 54.28 162.528 54.92 162.4C55.752 162.208 56.872 162.4 58.28 162.976C58.92 163.296 59.4 163.456 59.72 163.456H60.296C60.616 163.456 60.84 163.424 60.968 163.36C61.096 163.296 61.16 163.136 61.16 162.88V162.592L61.832 162.688C62.856 162.752 63.368 162.528 63.368 162.016C63.368 161.888 63.304 161.696 63.176 161.44C62.856 160.992 62.824 160.736 63.08 160.672C63.144 160.672 63.208 160.64 63.272 160.576C63.336 160.512 63.368 160.416 63.368 160.288C63.56 160.032 63.752 159.904 63.944 159.904C64.52 159.712 64.84 159.584 64.904 159.52L65.192 159.232L64.904 159.328C64.712 159.392 64.616 159.36 64.616 159.232C64.616 159.104 64.744 159.04 65 159.04C65.192 159.104 65.288 159.072 65.288 158.944C65.288 158.88 65.224 158.848 65.096 158.848C64.968 158.848 64.872 158.816 64.808 158.752C64.744 158.624 64.744 158.528 64.808 158.464C64.872 158.4 65.064 158.368 65.384 158.368C65.576 158.368 65.736 158.304 65.864 158.176C65.992 158.048 66.056 157.92 66.056 157.792V157.696C65.992 157.504 66.056 157.408 66.248 157.408C66.376 157.408 66.44 157.312 66.44 157.12C66.376 156.928 66.504 156.672 66.824 156.352C67.272 155.968 67.496 155.712 67.496 155.584C67.56 155.52 67.592 155.488 67.592 155.488L67.688 155.104C67.688 154.848 67.752 154.72 67.88 154.72C68.136 154.72 68.328 154.496 68.456 154.048L68.744 153.472C68.808 153.216 68.968 152.832 69.224 152.32C69.48 151.808 69.704 151.296 69.896 150.784C70.152 150.592 70.44 150.016 70.76 149.056C71.336 147.968 71.624 147.36 71.624 147.232C71.688 147.04 71.752 146.88 71.816 146.752C71.944 146.624 72.04 146.528 72.104 146.464C72.488 146.016 72.808 145.408 73.064 144.64L73.64 143.104L74.024 142.144L74.696 140.896C75.016 140 75.304 139.008 75.56 137.92C75.816 136.768 76.072 135.648 76.328 134.56C76.392 134.24 76.424 133.568 76.424 132.544C76.424 131.264 76.328 129.952 76.136 128.608C76.008 127.264 75.848 126.4 75.656 126.016C75.144 125.056 74.12 123.808 72.584 122.272L70.856 120.544L69.416 120.064C68.392 119.68 67.688 119.488 67.304 119.488C66.92 119.488 66.632 119.584 66.44 119.776ZM22.088 131.104C22.088 131.104 21.896 131.264 21.512 131.584C21.32 131.968 21.192 132.16 21.128 132.16C21.064 132.16 20.36 132.32 19.016 132.64C18.12 133.024 16.968 133.92 15.56 135.328L13.928 136.864L12.584 137.92C11.688 138.816 10.44 139.712 8.84 140.608C7.688 141.12 6.76 141.472 6.056 141.664C5.352 141.856 4.424 142.016 3.272 142.144C1.992 142.144 1.288 142.208 1.16 142.336C1.096 142.4 1.192 142.56 1.448 142.816C1.832 143.008 2.024 143.232 2.024 143.488C2.024 143.68 2.376 144 3.08 144.448C3.336 144.576 4.072 144.64 5.288 144.64C6.312 144.576 7.368 144.384 8.456 144.064C9.544 143.744 10.472 143.392 11.24 143.008C12.072 142.624 12.552 142.432 12.68 142.432C12.68 142.624 12.232 143.136 11.336 143.968L10.952 144.64L10.568 144.736C10.312 144.736 10.216 144.832 10.28 145.024C10.344 145.152 10.248 145.344 9.992 145.6C9.672 146.048 9.512 146.272 9.512 146.272C9.512 146.336 9.576 146.368 9.704 146.368C9.896 146.368 10.024 146.304 10.088 146.176C10.088 145.984 10.248 145.792 10.568 145.6C11.144 145.408 11.56 145.6 11.816 146.176C11.944 146.368 12.008 147.424 12.008 149.344C12.008 151.264 11.944 152.256 11.816 152.32L11.048 152.896L9.128 154.432C7.528 155.712 6.28 156.608 5.384 157.12C4.552 157.568 3.656 157.856 2.696 157.984C1.736 158.176 1.192 158.336 1.064 158.464C1.064 158.528 0.936001 158.56 0.680001 158.56C0.488001 158.432 0.392001 158.464 0.392001 158.656C0.392001 158.72 0.52 158.752 0.776 158.752C0.968 158.752 1.064 158.784 1.064 158.848C1.064 158.976 1 159.04 0.872 159.04C0.808 158.976 0.712 158.944 0.584 158.944C0.52 158.944 0.456 158.912 0.392001 158.848C0.2 158.784 0.136 158.848 0.2 159.04C0.264 159.168 0.456 159.36 0.776 159.616C1.288 160.128 1.768 160.448 2.216 160.576C2.728 160.704 3.4 160.768 4.232 160.768C5.32 160.768 6.248 160.672 7.016 160.48C7.848 160.224 8.808 159.808 9.896 159.232L11.048 158.752L11.144 159.616C11.144 160.768 11.08 162.016 10.952 163.36C10.888 164.704 10.792 165.888 10.664 166.912C9.96 169.728 9.544 171.264 9.416 171.52C9.288 171.776 9 172.096 8.552 172.48C8.424 172.544 8.296 172.64 8.168 172.768C8.04 172.832 7.912 172.864 7.784 172.864C7.528 172.864 7.112 172.512 6.536 171.808C6.152 171.296 5.832 171.04 5.576 171.04C5.448 171.04 5.32 171.296 5.192 171.808C5.128 172.64 5.032 173.056 4.904 173.056L4.712 172.96C4.52 172.96 4.264 173.152 3.944 173.536C3.432 173.984 3.08 174.208 2.888 174.208C2.632 174.336 2.44 174.464 2.312 174.592C2.248 174.656 2.216 174.816 2.216 175.072V175.456C2.216 175.968 2.12 176.416 1.928 176.8C1.672 176.864 1.544 177.088 1.544 177.472C1.544 177.6 1.448 177.76 1.256 177.952C1 178.464 1.064 178.816 1.448 179.008C1.96 179.392 2.312 179.712 2.504 179.968C2.76 180.288 2.888 180.64 2.888 181.024C3.016 181.344 3.24 181.792 3.56 182.368C3.944 182.88 4.2 183.136 4.328 183.136C4.584 183.136 4.84 183.04 5.096 182.848C5.416 182.592 5.736 182.208 6.056 181.696C6.376 180.928 6.984 180.192 7.88 179.488C8.84 178.464 9.512 177.856 9.896 177.664C10.472 177.152 11.336 176.288 12.488 175.072C13.64 173.856 14.472 172.896 14.984 172.192C15.176 171.808 15.464 171.424 15.848 171.04C16.232 170.656 16.776 170.08 17.48 169.312C18.376 168.352 19.464 167.296 20.744 166.144C21.832 165.376 22.376 164.864 22.376 164.608C22.504 164.288 22.856 163.904 23.432 163.456L24.872 162.304L26.408 160.864C26.92 160.544 27.336 160.192 27.656 159.808C27.72 159.744 27.816 159.68 27.944 159.616C28.136 159.552 28.328 159.424 28.52 159.232C29.032 158.848 29.64 158.272 30.344 157.504C31.048 156.736 31.528 156.128 31.784 155.68C32.04 155.552 32.232 155.392 32.36 155.2C32.552 155.008 32.744 154.848 32.936 154.72C33.32 154.4 33.768 153.984 34.28 153.472C34.792 152.96 34.984 152.704 34.856 152.704C34.6 152.768 34.344 152.928 34.088 153.184C33.192 153.888 32.68 154.272 32.552 154.336C32.168 154.72 31.432 155.232 30.344 155.872C29.064 156.896 28.104 157.568 27.464 157.888C27.208 158.144 26.888 158.432 26.504 158.752C26.12 159.008 25.704 159.296 25.256 159.616C24.872 159.872 24.488 160.16 24.104 160.48C23.784 160.736 23.496 160.928 23.24 161.056C22.728 161.44 22.472 161.664 22.472 161.728C22.472 161.728 22.28 161.856 21.896 162.112C21.384 162.368 20.84 162.752 20.264 163.264C19.56 163.712 19.144 163.936 19.016 163.936C18.888 163.936 18.824 163.84 18.824 163.648V163.456C19.144 161.6 19.304 158.72 19.304 154.816L19.4 152.8L20.264 152.224C20.52 151.904 21.064 151.488 21.896 150.976C22.536 150.656 23.208 150.464 23.912 150.4C24.488 150.336 24.904 150.208 25.16 150.016C25.416 149.824 25.704 149.536 26.024 149.152C26.216 148.832 26.312 148.576 26.312 148.384C26.312 148.064 26.12 147.744 25.736 147.424C25.608 147.168 25.448 146.976 25.256 146.848C25.128 146.72 24.936 146.656 24.68 146.656C23.848 146.656 23.272 146.688 22.952 146.752C22.12 146.88 21.544 146.944 21.224 146.944C20.52 146.944 20.008 146.848 19.688 146.656C19.624 146.656 19.528 146.624 19.4 146.56C19.272 146.432 19.176 146.432 19.112 146.56C18.984 146.624 18.792 146.656 18.536 146.656C18.28 146.592 18.056 146.496 17.864 146.368C17.608 146.112 16.968 145.76 15.944 145.312C15.624 145.248 15.24 144.992 14.792 144.544C14.472 144.16 14.312 143.904 14.312 143.776C14.312 143.648 14.376 143.584 14.504 143.584C14.568 143.584 14.824 143.392 15.272 143.008C15.784 142.624 16.232 142.24 16.616 141.856C17.448 141.152 18.216 140.576 18.92 140.128C19.752 139.68 20.552 139.136 21.32 138.496C21.384 138.432 21.64 138.304 22.088 138.112C22.216 137.984 22.28 137.856 22.28 137.728C22.28 137.6 22.408 137.536 22.664 137.536C22.984 137.536 23.176 137.504 23.24 137.44C23.368 137.248 23.688 137.088 24.2 136.96L25.064 136.576C25.256 136.576 25.384 136.608 25.448 136.672L26.12 136.768C26.312 136.768 26.408 136.832 26.408 136.96C26.408 137.152 26.6 137.216 26.984 137.152L27.944 136.864L28.52 136.672L29.288 136.384C29.544 136.256 29.736 136.128 29.864 136C29.992 135.872 30.056 135.712 30.056 135.52C30.056 135.2 29.96 134.848 29.768 134.464C29.64 134.08 29.48 133.856 29.288 133.792C28.968 133.664 28.456 133.536 27.752 133.408C27.368 133.28 27.08 133.184 26.888 133.12C26.696 132.992 26.568 132.832 26.504 132.64C26.248 132.384 25.864 132.096 25.352 131.776C25.032 131.584 24.68 131.488 24.296 131.488C24.04 131.488 23.912 131.456 23.912 131.392C23.912 131.2 23.72 131.104 23.336 131.104C23.016 131.104 22.76 131.072 22.568 131.008C22.312 131.008 22.152 131.04 22.088 131.104ZM60.2 139.552L62.312 139.456C63.016 139.328 63.368 139.392 63.368 139.648C63.368 139.776 63.272 140.032 63.08 140.416L62.408 141.952L61.16 144.352C60.84 144.864 60.552 145.344 60.296 145.792C60.104 146.176 59.944 146.464 59.816 146.656L59.336 147.52L58.568 147.616C57.864 147.616 57.48 147.584 57.416 147.52C57.416 147.456 56.84 147.424 55.688 147.424C53.576 147.424 52.296 147.488 51.848 147.616C51.784 147.616 51.72 147.648 51.656 147.712C51.592 147.712 51.528 147.712 51.464 147.712V145.12L51.656 142.624H52.232C52.488 142.688 52.616 142.656 52.616 142.528L52.52 142.144C52.456 142.016 52.424 141.92 52.424 141.856C52.488 141.792 52.584 141.728 52.712 141.664L53.672 141.184C53.864 141.056 54.152 140.864 54.536 140.608C54.984 140.352 55.304 140.224 55.496 140.224C55.816 140.224 56.232 140.032 56.744 139.648C57.192 139.392 57.48 139.264 57.608 139.264L58.568 139.456L60.2 139.552ZM44.744 147.808C44.744 148.576 44.712 149.248 44.648 149.824C44.584 150.336 44.552 150.624 44.552 150.688C44.488 150.944 44.04 151.328 43.208 151.84C42.44 152.288 41.864 152.512 41.48 152.512C41.352 152.448 41.224 152.288 41.096 152.032C40.968 151.776 40.808 151.392 40.616 150.88L39.752 148.96C39.688 148.768 39.752 148.608 39.944 148.48C40.2 148.288 40.68 147.936 41.384 147.424L43.688 145.792L44.84 145.312C44.84 146.208 44.808 147.04 44.744 147.808ZM52.904 151.264C53.864 151.904 54.472 152.416 54.728 152.8C55.048 153.184 55.24 153.728 55.304 154.432C55.304 155.072 55.368 155.456 55.496 155.584C55.688 156.096 55.592 156.704 55.208 157.408C54.824 157.792 54.568 157.984 54.44 157.984C54.248 158.048 54.024 158.08 53.768 158.08C53.512 158.08 53.32 158.048 53.192 157.984C53.064 157.856 52.584 157.792 51.752 157.792C51.56 157.792 51.4 157.824 51.272 157.888C51.08 158.016 51.016 157.856 51.08 157.408C51.208 156.704 51.304 155.744 51.368 154.528C51.496 153.312 51.528 152.416 51.464 151.84V151.264C51.528 151.136 51.72 151.072 52.04 151.072C52.424 151.072 52.712 151.136 52.904 151.264ZM59.816 175.552C58.088 175.808 56.808 176.032 55.976 176.224C53.544 176.8 52.072 177.088 51.56 177.088L50.6 177.28C50.152 177.472 49.352 177.632 48.2 177.76C46.984 177.888 45.864 178.112 44.84 178.432C44.52 178.496 44.072 178.592 43.496 178.72C42.92 178.848 42.28 178.944 41.576 179.008L38.408 179.68L34.376 180.544C33.608 180.672 32.968 180.768 32.456 180.832C32.008 180.896 31.688 180.96 31.496 181.024C31.304 181.088 30.888 181.184 30.248 181.312L26.12 182.272C22.792 183.232 20.392 183.808 18.92 184C18.664 184.064 17.96 184.096 16.808 184.096C15.592 184.096 14.76 184.064 14.312 184C13.8 183.936 13.544 183.936 13.544 184C13.544 184.064 13.8 184.32 14.312 184.768L14.696 184.96L13.832 185.056H12.872L13.16 185.536C13.352 185.792 13.8 186.112 14.504 186.496C14.888 186.688 15.272 186.816 15.656 186.88C16.104 186.944 16.68 186.976 17.384 186.976C19.496 186.976 21.992 186.624 24.872 185.92C28.648 185.28 31.976 184.96 34.856 184.96C37.544 184.832 39.112 184.704 39.56 184.576C41.224 184.256 43.144 184.032 45.32 183.904C46.6 183.904 48.744 183.744 51.752 183.424L53.096 183.328C53.224 183.328 53.64 183.392 54.344 183.52C55.112 183.712 55.656 183.808 55.976 183.808C56.744 183.808 57.608 183.872 58.568 184C59.528 184.064 60.232 184.128 60.68 184.192C60.36 184.384 59.944 184.512 59.432 184.576L56.552 185.152L54.152 185.824C53.64 185.888 53.224 186.112 52.904 186.496C52.712 186.752 52.2 187.04 51.368 187.36C50.536 187.744 49.704 188 48.872 188.128C48.616 188.256 48.488 188.384 48.488 188.512C48.488 188.64 48.872 188.704 49.64 188.704H50.216C50.536 188.64 50.92 188.64 51.368 188.704C51.752 188.768 52.264 188.736 52.904 188.608C53.608 188.544 54.76 188.32 56.36 187.936C56.936 187.936 57.672 187.84 58.568 187.648C59.784 187.52 60.808 187.36 61.64 187.168C63.112 187.04 65.16 186.976 67.784 186.976C70.088 186.976 71.304 187.04 71.432 187.168C71.56 187.232 71.848 187.264 72.296 187.264C72.68 187.2 72.904 187.264 72.968 187.456C73.096 187.648 73.32 187.744 73.64 187.744C73.896 187.68 74.12 187.68 74.312 187.744C74.504 187.872 74.44 187.968 74.12 188.032C73.992 188.096 74.056 188.192 74.312 188.32C74.504 188.576 74.824 188.736 75.272 188.8C75.848 188.928 76.328 189.152 76.712 189.472C77.096 189.856 77.64 190.208 78.344 190.528L79.112 190.816C79.176 190.816 79.208 190.752 79.208 190.624C79.208 190.432 79.24 190.304 79.304 190.24C79.432 190.24 79.56 190.272 79.688 190.336L80.84 190.528C81.096 190.528 81.288 190.496 81.416 190.432C81.608 190.368 81.704 190.24 81.704 190.048L81.608 189.28C81.48 188.64 81.352 188.16 81.224 187.84C81.096 187.584 80.936 187.36 80.744 187.168L80.456 186.688L79.592 185.248C79.144 184.608 78.92 184.128 78.92 183.808V183.616C78.92 183.296 78.856 183.04 78.728 182.848C78.536 182.656 78.408 182.496 78.344 182.368C78.344 182.24 78.408 182.176 78.536 182.176C78.664 182.176 78.696 182.144 78.632 182.08C78.632 181.952 78.536 181.856 78.344 181.792C78.024 181.664 77.832 181.472 77.768 181.216C77.768 181.024 77.64 180.928 77.384 180.928C77.128 180.992 76.808 180.864 76.424 180.544C76.04 180.224 75.464 179.68 74.696 178.912C73.416 177.632 72.36 176.704 71.528 176.128C71.336 176 71.144 175.904 70.952 175.84C70.824 175.776 70.728 175.712 70.664 175.648C70.664 175.584 70.536 175.552 70.28 175.552C69.896 175.552 69.512 175.456 69.128 175.264C68.616 175.136 67.144 175.072 64.712 175.072C63.368 175.072 62.632 175.104 62.504 175.168L59.816 175.552Z" fill="white"/>
</svg>
